<?xml version="1.0" encoding="UTF-8"?>
<svg xmlns="http://www.w3.org/2000/svg" xmlns:xlink="http://www.w3.org/1999/xlink" width="300px" height="67px" viewBox="0 0 300 67" version="1.1">
<defs>
<filter id="alpha" filterUnits="objectBoundingBox" x="0%" y="0%" width="100%" height="100%">
  <feColorMatrix type="matrix" in="SourceGraphic" values="0 0 0 0 1 0 0 0 0 1 0 0 0 0 1 0 0 0 1 0"/>
</filter>
<mask id="mask0">
  <g filter="url(#alpha)">
<rect x="0" y="0" width="300" height="67" style="fill:rgb(0%,0%,0%);fill-opacity:0.890196;stroke:none;"/>
  </g>
</mask>
<clipPath id="clip1">
  <rect x="0" y="0" width="300" height="67"/>
</clipPath>
<g id="surface5" clip-path="url(#clip1)">
<path style=" stroke:none;fill-rule:evenodd;fill:rgb(0%,63.137255%,91.372549%);fill-opacity:1;" d="M 149.148438 -0.0625 C 149.335938 -0.0625 149.527344 -0.0625 149.714844 -0.0625 C 158.039062 1.867188 168.265625 3.035156 180.398438 3.4375 C 191.019531 3.757812 201.625 4.097656 212.214844 4.457031 C 229.046875 4.917969 238.800781 7.019531 241.476562 10.761719 C 241.855469 11.355469 242.140625 11.949219 242.328125 12.546875 C 257.363281 12.863281 267.496094 14.601562 272.726562 17.769531 C 273.90625 18.476562 274.851562 19.199219 275.566406 19.933594 C 277.335938 22.183594 279.039062 24.433594 280.683594 26.683594 C 283.226562 29.269531 289.570312 31.222656 299.714844 32.542969 C 299.714844 32.628906 299.714844 32.714844 299.714844 32.800781 C 288.449219 34.492188 281.917969 36.867188 280.113281 39.933594 C 278.738281 42.101562 277.222656 44.269531 275.566406 46.429688 C 272.269531 50.054688 263.085938 52.625 248.011719 54.136719 C 244.742188 54.300781 241.617188 54.535156 238.636719 54.835938 C 237.375 55.613281 235.667969 56.335938 233.523438 57 C 229.460938 58.058594 225.671875 59.164062 222.160156 60.3125 C 219.648438 61.257812 218.226562 62.277344 217.898438 63.371094 C 215.390625 63.40625 213.117188 63.257812 211.078125 62.925781 C 207.757812 62.265625 204.445312 61.605469 201.136719 60.949219 C 191.136719 62.078125 184.792969 63.863281 182.101562 66.300781 C 179.226562 66.015625 176.574219 65.652344 174.148438 65.214844 C 171.355469 64.527344 168.324219 63.910156 165.058594 63.371094 C 162.710938 63.65625 160.4375 63.972656 158.238281 64.324219 C 154.285156 65.191406 150.496094 66.058594 146.875 66.9375 C 146.496094 66.9375 146.117188 66.9375 145.738281 66.9375 C 141.53125 65.484375 136.035156 64.335938 129.261719 63.496094 C 125.199219 64.546875 120.464844 65.417969 115.058594 66.109375 C 113.585938 66.277344 112.070312 66.359375 110.511719 66.363281 C 109.433594 66.226562 109.246094 66.054688 109.941406 65.855469 C 108.40625 64.445312 105.375 63.210938 100.851562 62.160156 C 97.628906 61.863281 94.691406 61.457031 92.046875 60.949219 C 87.378906 61.867188 82.359375 62.671875 76.988281 63.371094 C 76.304688 61.957031 74.316406 60.640625 71.023438 59.421875 C 65.683594 57.671875 60.570312 55.890625 55.683594 54.070312 C 45.800781 53.554688 37.65625 52.410156 31.25 50.632812 C 27.351562 49.5625 24.320312 48.375 22.160156 47.066406 C 19.953125 44.4375 17.871094 41.804688 15.910156 39.167969 C 14.078125 36.394531 8.679688 34.058594 -0.285156 32.164062 C -0.285156 32.078125 -0.285156 31.992188 -0.285156 31.90625 C 9.300781 30.542969 15.078125 28.589844 17.046875 26.046875 C 18.667969 22.933594 21.507812 19.875 25.566406 16.878906 C 28.605469 15.472656 33.058594 14.347656 38.921875 13.5 C 44.011719 12.867188 49.3125 12.335938 54.828125 11.910156 C 55.59375 8.878906 61.65625 6.5625 73.011719 4.96875 C 75.621094 4.730469 78.269531 4.519531 80.964844 4.332031 C 95.578125 3.953125 110.160156 3.527344 124.714844 3.058594 C 134.097656 2.472656 142.242188 1.433594 149.148438 -0.0625 Z M 149.148438 1.71875 C 155.421875 2.953125 162.621094 3.824219 170.738281 4.332031 C 184.117188 4.890625 197.566406 5.359375 211.078125 5.730469 C 227.074219 6.132812 235.410156 8.128906 236.078125 11.71875 C 236.164062 11.976562 235.785156 12.191406 234.941406 12.355469 C 228.976562 12.523438 225.570312 13.269531 224.714844 14.585938 C 226.5625 16.109375 230.539062 16.511719 236.648438 15.792969 C 238.910156 15.308594 240.613281 14.734375 241.761719 14.074219 C 250 13.96875 256.722656 14.648438 261.933594 16.113281 C 266.007812 17.433594 268.847656 18.875 270.453125 20.445312 C 271.917969 22.695312 273.433594 24.945312 275 27.195312 C 277.011719 29.46875 282.03125 31.316406 290.058594 32.734375 C 281.589844 34.300781 276.570312 36.316406 275 38.785156 C 273.242188 41.332031 271.539062 43.878906 269.886719 46.429688 C 266.457031 50.0625 256.703125 52.269531 240.625 53.050781 C 239.527344 51.507812 235.546875 50.808594 228.691406 50.949219 C 222.464844 51.488281 220.664062 52.445312 223.296875 53.816406 C 225.65625 54.324219 228.40625 54.6875 231.535156 54.898438 C 227 56.527344 221.984375 58.078125 216.476562 59.546875 C 215.042969 60.132812 213.714844 60.726562 212.5 61.332031 C 210.023438 60.96875 208.035156 60.5 206.535156 59.929688 C 209.984375 59.105469 212.066406 58.128906 212.785156 57 C 211.34375 55.046875 206.609375 54.472656 198.578125 55.28125 C 196.175781 55.847656 195.039062 56.527344 195.171875 57.320312 C 195.625 58.125 196.289062 58.910156 197.160156 59.675781 C 192.066406 60.605469 187.140625 61.582031 182.386719 62.605469 C 180.816406 63.085938 179.488281 63.59375 178.410156 64.132812 C 175.757812 63.710938 173.484375 63.199219 171.589844 62.605469 C 171.210938 62.4375 171.210938 62.265625 171.589844 62.097656 C 174.675781 61.414062 176.472656 60.585938 176.988281 59.613281 C 176.621094 58.636719 174.351562 58 170.171875 57.703125 C 165.667969 57.6875 162.734375 58.175781 161.363281 59.167969 C 160.894531 59.585938 160.613281 60.007812 160.511719 60.441406 C 160.84375 61 161.125 61.550781 161.363281 62.097656 C 156.078125 62.984375 150.964844 63.917969 146.023438 64.898438 C 141.703125 64.015625 137.347656 63.125 132.953125 62.222656 C 133.320312 61.679688 133.796875 61.125 134.375 60.566406 C 133.765625 58.582031 129.222656 57.792969 120.738281 58.210938 C 116.550781 59.226562 116.265625 60.308594 119.886719 61.460938 C 121.199219 61.859375 122.621094 62.242188 124.148438 62.605469 C 121.847656 63.417969 118.816406 64.054688 115.058594 64.515625 C 113.21875 63.820312 111.226562 63.140625 109.089844 62.476562 C 104.828125 61.523438 100.566406 60.566406 96.308594 59.613281 C 99 58.394531 99.472656 57.140625 97.726562 55.855469 C 95.621094 55.046875 92.496094 54.726562 88.351562 54.898438 C 86.144531 55.183594 84.535156 55.585938 83.523438 56.109375 C 82.347656 57.507812 83.390625 58.800781 86.648438 59.996094 C 85.246094 60.457031 83.542969 60.859375 81.535156 61.203125 C 77.4375 59.035156 71.851562 57.082031 64.773438 55.34375 C 63.992188 54.972656 63.140625 54.613281 62.214844 54.261719 C 71.71875 54 74.277344 52.917969 69.886719 51.015625 C 66.785156 50.644531 63.46875 50.539062 59.941406 50.695312 C 58.929688 50.796875 58.074219 50.945312 57.386719 51.140625 C 56.605469 51.597656 55.753906 52.042969 54.828125 52.480469 C 49.945312 52.421875 45.589844 52.039062 41.761719 51.332031 C 33.195312 49.550781 27.796875 47.367188 25.566406 44.773438 C 23.730469 42.046875 21.648438 39.328125 19.316406 36.621094 C 16.933594 35 13.238281 33.554688 8.238281 32.289062 C 15.019531 30.820312 19.28125 29.039062 21.023438 26.941406 C 22.988281 24.335938 25.261719 21.746094 27.839844 19.171875 C 31.324219 16.222656 39.5625 14.335938 52.558594 13.5 C 53.554688 13.398438 54.503906 13.421875 55.398438 13.566406 C 57.355469 14.949219 61.519531 15.609375 67.898438 15.539062 C 72.902344 14.828125 73.753906 13.914062 70.453125 12.800781 C 67.644531 12.335938 64.519531 12.019531 61.078125 11.847656 C 61.511719 8.519531 68.898438 6.351562 83.238281 5.351562 C 97.855469 5.0625 112.4375 4.722656 126.988281 4.332031 C 135.238281 3.789062 142.621094 2.917969 149.148438 1.71875 Z M 142.898438 11.019531 C 143.648438 12.101562 143.648438 13.207031 142.898438 14.328125 C 140.75 13.226562 140.75 12.121094 142.898438 11.019531 Z M 165.058594 13.3125 C 165.09375 12.835938 165.378906 12.371094 165.910156 11.910156 C 166.230469 12.410156 165.945312 12.875 165.058594 13.3125 Z M 61.078125 13.183594 C 63.738281 13.183594 65.632812 13.4375 66.761719 13.949219 C 65.8125 14.363281 64.488281 14.429688 62.785156 14.140625 C 61.421875 13.855469 60.855469 13.535156 61.078125 13.183594 Z M 85.511719 13.183594 C 86.308594 13.242188 86.6875 13.371094 86.648438 13.566406 C 85.847656 13.503906 85.46875 13.378906 85.511719 13.183594 Z M 113.351562 13.4375 C 114.164062 13.601562 114.542969 13.8125 114.488281 14.074219 C 113.675781 13.910156 113.296875 13.699219 113.351562 13.4375 Z M 194.035156 13.4375 C 192.171875 14.230469 189.902344 14.953125 187.214844 15.605469 C 188.09375 14.996094 189.132812 14.402344 190.339844 13.820312 C 191.386719 13.609375 192.617188 13.480469 194.035156 13.4375 Z M 179.261719 13.566406 C 179.050781 14.050781 178.292969 14.472656 176.988281 14.839844 C 177.421875 14.375 178.179688 13.953125 179.261719 13.566406 Z M 232.671875 13.820312 C 233.429688 13.820312 234.1875 13.820312 234.941406 13.820312 C 235.011719 14.523438 233.6875 14.714844 230.964844 14.394531 C 231.46875 14.1875 232.039062 13.996094 232.671875 13.820312 Z M 194.601562 14.074219 C 193.15625 14.863281 191.261719 15.585938 188.921875 16.242188 C 190.386719 15.453125 192.28125 14.734375 194.601562 14.074219 Z M 188.921875 16.242188 C 188.960938 16.433594 188.582031 16.5625 187.785156 16.621094 C 187.742188 16.429688 188.121094 16.300781 188.921875 16.242188 Z M 148.011719 19.171875 C 149.082031 19.28125 150.125 19.40625 151.136719 19.550781 C 151.691406 20.03125 152.542969 20.476562 153.691406 20.890625 C 155.9375 20.957031 157.925781 21.148438 159.660156 21.464844 C 161.476562 22.175781 162.613281 22.9375 163.066406 23.753906 C 171.824219 24.496094 174.851562 25.898438 172.160156 27.960938 C 173.78125 28.226562 175.296875 28.523438 176.703125 28.851562 C 178.410156 29.792969 178.222656 30.726562 176.136719 31.652344 C 175.09375 32.121094 174.054688 32.585938 173.011719 33.054688 C 173.199219 33.179688 173.578125 33.265625 174.148438 33.308594 C 182.703125 32.359375 185.828125 32.953125 183.523438 35.09375 C 181.898438 36.179688 179.53125 37.175781 176.421875 38.085938 C 174.992188 38.355469 173.667969 38.332031 172.441406 38.023438 C 171.777344 38.074219 171.210938 38.160156 170.738281 38.277344 C 167.953125 39.714844 163.976562 40.96875 158.808594 42.035156 C 152.644531 43.1875 146.207031 43.273438 139.488281 42.289062 C 132.722656 41.171875 127.988281 39.707031 125.285156 37.894531 C 123.4375 37.855469 121.542969 37.832031 119.601562 37.832031 C 113.308594 36.507812 111.222656 34.914062 113.351562 33.054688 C 115.78125 32.574219 118.054688 32.640625 120.171875 33.246094 C 120.90625 33.308594 121.664062 33.328125 122.441406 33.308594 C 121.90625 32.683594 120.867188 32.089844 119.316406 31.527344 C 118.070312 30.011719 119.964844 28.738281 125 27.703125 C 123.542969 26.371094 124.960938 25.222656 129.261719 24.265625 C 131.265625 23.921875 133.351562 23.601562 135.511719 23.308594 C 135.375 21.976562 138.308594 21.148438 144.316406 20.824219 C 145.074219 20.207031 146.304688 19.652344 148.011719 19.171875 Z M 70.738281 24.519531 C 67.222656 24.296875 64 23.933594 61.078125 23.4375 C 64.585938 23.660156 67.804688 24.019531 70.738281 24.519531 Z M 148.011719 29.488281 C 151.664062 30.296875 153.9375 31.292969 154.828125 32.480469 C 152.964844 34.09375 148.894531 34.453125 142.613281 33.5625 C 141.285156 33.046875 140.90625 32.496094 141.476562 31.90625 C 143.105469 31.015625 145.285156 30.207031 148.011719 29.488281 Z M 56.535156 32.035156 C 58.226562 32.183594 59.929688 32.332031 61.648438 32.480469 C 59.398438 32.703125 57.125 32.683594 54.828125 32.417969 C 55.550781 32.316406 56.121094 32.191406 56.535156 32.035156 Z M 50.851562 34.582031 C 55.582031 34.492188 60.316406 34.46875 65.058594 34.519531 C 60.808594 34.828125 56.453125 34.914062 51.988281 34.773438 C 51.46875 34.738281 51.089844 34.675781 50.851562 34.582031 Z M 232.101562 35.472656 C 232.542969 35.390625 233.109375 35.347656 233.808594 35.347656 C 236.839844 35.445312 239.871094 35.554688 242.898438 35.664062 C 244.46875 35.75 244.753906 35.898438 243.75 36.109375 C 239.816406 35.929688 235.933594 35.714844 232.101562 35.472656 Z M 57.671875 35.601562 C 58.820312 35.582031 59.957031 35.601562 61.078125 35.664062 C 58.835938 35.816406 56.5625 35.859375 54.261719 35.792969 C 55.515625 35.769531 56.652344 35.703125 57.671875 35.601562 Z M 240.058594 40.058594 C 236.0625 39.613281 231.894531 39.25 227.558594 38.976562 C 225.800781 38.859375 225.609375 38.710938 226.988281 38.53125 C 231.445312 38.757812 235.707031 39.097656 239.773438 39.550781 C 240.050781 39.714844 240.144531 39.886719 240.058594 40.058594 Z M 67.328125 39.296875 C 68.292969 39.273438 69.242188 39.296875 70.171875 39.359375 C 66.765625 39.613281 63.359375 39.867188 59.941406 40.125 C 58.996094 40.207031 58.050781 40.207031 57.101562 40.125 C 60.597656 39.882812 64.007812 39.609375 67.328125 39.296875 Z M 225.851562 39.550781 C 227.019531 39.539062 227.964844 39.621094 228.691406 39.804688 C 227.527344 39.816406 226.578125 39.734375 225.851562 39.550781 Z M 232.101562 40.058594 C 233.972656 40.027344 235.679688 40.136719 237.214844 40.378906 C 235.347656 40.386719 233.644531 40.28125 232.101562 40.058594 Z M 126.421875 41.207031 C 140.210938 45.164062 154.511719 45.246094 169.316406 41.460938 C 169.917969 43.15625 171.8125 44.769531 175 46.300781 C 179.5 47.453125 185.089844 48.238281 191.761719 48.65625 C 195.003906 49.25 196.992188 49.996094 197.726562 50.886719 C 181.359375 53.03125 163.652344 54.09375 144.601562 54.070312 C 135.347656 53.917969 126.257812 53.554688 117.328125 52.988281 C 110.707031 52.332031 104.269531 51.609375 98.011719 50.824219 C 96.609375 50.621094 96.515625 50.386719 97.726562 50.121094 C 99.507812 49.597656 101.496094 49.109375 103.691406 48.65625 C 108.074219 48.039062 112.621094 47.488281 117.328125 47 C 120.597656 46.324219 122.773438 45.496094 123.863281 44.519531 C 124.679688 43.410156 125.53125 42.308594 126.421875 41.207031 Z M 66.191406 41.460938 C 64.601562 41.796875 62.710938 41.902344 60.511719 41.78125 C 62.398438 41.660156 64.292969 41.554688 66.191406 41.460938 Z M 223.578125 44.007812 C 225.257812 44.070312 226.585938 44.261719 227.558594 44.582031 C 227.179688 44.667969 226.800781 44.667969 226.421875 44.582031 C 225.433594 44.386719 224.484375 44.199219 223.578125 44.007812 Z M 63.351562 51.90625 C 65.316406 51.984375 65.976562 52.242188 65.339844 52.671875 C 64.132812 52.910156 62.710938 53.035156 61.078125 53.050781 C 60.785156 52.546875 61.542969 52.167969 63.351562 51.90625 Z M 229.261719 52.414062 C 230.777344 52.414062 232.292969 52.414062 233.808594 52.414062 C 234.46875 53.558594 232.859375 53.726562 228.976562 52.925781 C 228.867188 52.757812 228.960938 52.585938 229.261719 52.414062 Z M 89.488281 56.492188 C 90.5625 56.464844 91.414062 56.550781 92.046875 56.746094 C 92.636719 57.375 92.257812 57.96875 90.910156 58.53125 C 88.949219 57.902344 88.476562 57.226562 89.488281 56.492188 Z M 203.691406 56.492188 C 204.933594 56.6875 205.5 56.960938 205.398438 57.320312 C 205.292969 57.773438 204.628906 58.175781 203.410156 58.53125 C 201.433594 57.832031 201.527344 57.152344 203.691406 56.492188 Z M 124.148438 59.421875 C 127.09375 59.453125 128.417969 59.8125 128.125 60.503906 C 127.824219 61.375 126.59375 61.4375 124.433594 60.695312 C 122.96875 60.265625 122.871094 59.839844 124.148438 59.421875 Z M 167.898438 59.421875 C 168.65625 59.421875 169.414062 59.421875 170.171875 59.421875 C 170.601562 60.074219 169.75 60.628906 167.613281 61.078125 C 166.46875 60.519531 166.5625 59.96875 167.898438 59.421875 Z M 167.898438 59.421875 "/>
</g>
<mask id="mask1">
  <g filter="url(#alpha)">
<rect x="0" y="0" width="300" height="67" style="fill:rgb(0%,0%,0%);fill-opacity:0.784314;stroke:none;"/>
  </g>
</mask>
<clipPath id="clip2">
  <rect x="0" y="0" width="300" height="67"/>
</clipPath>
<g id="surface8" clip-path="url(#clip2)">
<path style=" stroke:none;fill-rule:evenodd;fill:rgb(0%,63.137255%,91.372549%);fill-opacity:1;" d="M 183.808594 13.566406 C 182.355469 14.261719 180.839844 14.960938 179.261719 15.667969 C 178.074219 15.796875 176.84375 15.90625 175.566406 15.984375 C 174.304688 15.875 173.070312 15.75 171.875 15.605469 C 170.839844 15.722656 170.082031 15.636719 169.601562 15.347656 C 172.867188 13.664062 175.328125 11.921875 176.988281 10.125 C 174.648438 11.542969 172.46875 12.984375 170.453125 14.457031 C 170.035156 14.820312 169.085938 15.074219 167.613281 15.222656 C 167.027344 15.179688 166.746094 15.09375 166.761719 14.964844 C 165.742188 15.125 164.605469 15.207031 163.351562 15.222656 C 163.847656 14.800781 164.226562 14.378906 164.488281 13.949219 C 163.898438 14.253906 163.140625 14.550781 162.214844 14.839844 C 160.96875 15 159.738281 15 158.523438 14.839844 C 158.242188 13.898438 158.527344 12.964844 159.375 12.035156 C 159.386719 11.835938 159.105469 11.667969 158.523438 11.527344 C 157.722656 12.59375 156.773438 13.65625 155.683594 14.710938 C 154.226562 15.046875 152.902344 15.003906 151.703125 14.585938 C 151.28125 13.859375 151.378906 13.136719 151.988281 12.417969 C 151.734375 11.890625 151.164062 11.378906 150.285156 10.890625 C 151.511719 10.609375 152.933594 10.566406 154.546875 10.761719 C 154.734375 11.359375 154.925781 11.953125 155.113281 12.546875 C 155.394531 11.976562 155.960938 11.425781 156.816406 10.890625 C 158.773438 10.578125 160.667969 10.578125 162.5 10.890625 C 162.257812 11.738281 162.066406 12.585938 161.933594 13.4375 C 162.4375 12.714844 163.007812 11.992188 163.636719 11.273438 C 165.289062 10.902344 167.277344 10.796875 169.601562 10.953125 C 170.292969 11.136719 170.671875 11.351562 170.738281 11.589844 C 169.914062 12.28125 169.34375 12.984375 169.035156 13.691406 C 171.929688 12.105469 174.679688 10.492188 177.273438 8.851562 C 179.371094 8.46875 180.980469 8.550781 182.101562 9.105469 C 180.59375 10.164062 179.363281 11.226562 178.410156 12.292969 C 179.789062 11.90625 181.496094 11.824219 183.523438 12.035156 C 184.519531 12.535156 184.613281 13.042969 183.808594 13.566406 Z M 165.058594 13.3125 C 165.945312 12.875 166.230469 12.410156 165.910156 11.910156 C 165.378906 12.371094 165.09375 12.835938 165.058594 13.3125 Z M 179.261719 13.566406 C 179.050781 14.050781 178.292969 14.472656 176.988281 14.839844 C 177.421875 14.375 178.179688 13.953125 179.261719 13.566406 Z M 179.261719 13.566406 "/>
</g>
<mask id="mask2">
  <g filter="url(#alpha)">
<rect x="0" y="0" width="300" height="67" style="fill:rgb(0%,0%,0%);fill-opacity:0.803922;stroke:none;"/>
  </g>
</mask>
<clipPath id="clip3">
  <rect x="0" y="0" width="300" height="67"/>
</clipPath>
<g id="surface11" clip-path="url(#clip3)">
<path style=" stroke:none;fill-rule:evenodd;fill:rgb(0%,63.137255%,91.372549%);fill-opacity:1;" d="M 141.191406 10.507812 C 141.949219 10.507812 142.707031 10.507812 143.464844 10.507812 C 143.382812 10.640625 143.476562 10.769531 143.75 10.890625 C 145.097656 10.496094 146.707031 10.433594 148.578125 10.699219 C 148.972656 10.835938 149.257812 10.984375 149.433594 11.144531 C 149.898438 12.382812 149.710938 13.613281 148.863281 14.839844 C 147.582031 15.171875 146.351562 15.171875 145.171875 14.839844 C 147.121094 13.761719 147.402344 12.660156 146.023438 11.527344 C 146.019531 12.605469 145.546875 13.664062 144.601562 14.710938 C 141.84375 15.144531 139.855469 15.015625 138.636719 14.328125 C 138.003906 14.527344 137.152344 14.609375 136.078125 14.585938 C 135.542969 13.566406 135.449219 12.550781 135.796875 11.527344 C 136.699219 10.929688 138.5 10.589844 141.191406 10.507812 Z M 142.898438 11.019531 C 140.75 12.121094 140.75 13.226562 142.898438 14.328125 C 143.648438 13.207031 143.648438 12.101562 142.898438 11.019531 Z M 142.898438 11.019531 "/>
</g>
<mask id="mask3">
  <g filter="url(#alpha)">
<rect x="0" y="0" width="300" height="67" style="fill:rgb(0%,0%,0%);fill-opacity:0.784314;stroke:none;"/>
  </g>
</mask>
<clipPath id="clip4">
  <rect x="0" y="0" width="300" height="67"/>
</clipPath>
<g id="surface14" clip-path="url(#clip4)">
<path style=" stroke:none;fill-rule:evenodd;fill:rgb(0%,63.137255%,91.372549%);fill-opacity:1;" d="M 123.011719 11.019531 C 127.035156 11.050781 128.644531 11.519531 127.839844 12.417969 C 127.449219 12.527344 126.976562 12.613281 126.421875 12.675781 C 125.511719 12.371094 124.851562 12.03125 124.433594 11.65625 C 123.9375 11.730469 123.652344 11.839844 123.578125 11.972656 C 124.707031 12.855469 125.652344 13.746094 126.421875 14.648438 C 126.347656 14.933594 126.0625 15.210938 125.566406 15.476562 C 123.125 15.65625 121.609375 15.445312 121.023438 14.839844 C 119.917969 13.820312 118.308594 12.84375 116.191406 11.910156 C 118.769531 11.738281 120.570312 11.949219 121.589844 12.546875 C 121.582031 12 122.054688 11.488281 123.011719 11.019531 Z M 123.011719 11.019531 "/>
</g>
<mask id="mask4">
  <g filter="url(#alpha)">
<rect x="0" y="0" width="300" height="67" style="fill:rgb(0%,0%,0%);fill-opacity:0.752941;stroke:none;"/>
  </g>
</mask>
<clipPath id="clip5">
  <rect x="0" y="0" width="300" height="67"/>
</clipPath>
<g id="surface17" clip-path="url(#clip5)">
<path style=" stroke:none;fill-rule:evenodd;fill:rgb(0%,63.137255%,91.372549%);fill-opacity:1;" d="M 117.328125 15.984375 C 117.070312 16.339844 116.125 16.511719 114.488281 16.496094 C 113.09375 16.480469 111.957031 16.351562 111.078125 16.113281 C 111.035156 16.296875 111.222656 16.464844 111.648438 16.621094 C 111.078125 16.792969 110.511719 16.792969 109.941406 16.621094 C 107.128906 15.59375 104.855469 14.511719 103.125 13.375 C 103.160156 13.191406 103.347656 13.023438 103.691406 12.863281 C 106.570312 12.699219 108.558594 12.933594 109.660156 13.566406 C 111.074219 14.371094 112.777344 15.132812 114.773438 15.859375 C 113.035156 14.777344 111.425781 13.671875 109.941406 12.546875 C 109.984375 12.382812 110.171875 12.234375 110.511719 12.101562 C 113.074219 11.769531 114.871094 11.917969 115.910156 12.546875 C 117.234375 13.351562 118.5625 14.160156 119.886719 14.964844 C 120.351562 15.40625 120.160156 15.832031 119.316406 16.242188 C 119.082031 16.296875 118.800781 16.339844 118.464844 16.367188 C 118.082031 16.226562 117.703125 16.101562 117.328125 15.984375 Z M 113.351562 13.4375 C 114.164062 13.601562 114.542969 13.8125 114.488281 14.074219 C 113.675781 13.910156 113.296875 13.699219 113.351562 13.4375 Z M 113.351562 13.4375 "/>
</g>
<mask id="mask5">
  <g filter="url(#alpha)">
<rect x="0" y="0" width="300" height="67" style="fill:rgb(0%,0%,0%);fill-opacity:0.74902;stroke:none;"/>
  </g>
</mask>
<clipPath id="clip6">
  <rect x="0" y="0" width="300" height="67"/>
</clipPath>
<g id="surface20" clip-path="url(#clip6)">
<path style=" stroke:none;fill-rule:evenodd;fill:rgb(0%,63.137255%,91.372549%);fill-opacity:1;" d="M 95.738281 14.839844 C 95.128906 14.429688 95.128906 14.027344 95.738281 13.628906 C 98.527344 13.296875 100.707031 13.445312 102.273438 14.074219 C 104.320312 14.867188 106.214844 15.671875 107.953125 16.496094 C 108.332031 16.835938 108.332031 17.175781 107.953125 17.515625 C 107.378906 17.621094 106.71875 17.664062 105.964844 17.640625 C 104.710938 16.316406 101.964844 15.167969 97.726562 14.203125 C 97.902344 14.5 98.28125 14.796875 98.863281 15.09375 C 100.519531 15.625 102.035156 16.175781 103.410156 16.75 C 104.125 17.347656 103.558594 17.855469 101.703125 18.277344 C 98.261719 17.207031 95.042969 16.105469 92.046875 14.964844 C 90.324219 14.476562 88.523438 14.007812 86.648438 13.566406 C 90.972656 15.089844 95.332031 16.617188 99.714844 18.152344 C 99.539062 18.253906 99.257812 18.339844 98.863281 18.40625 C 98.136719 18.121094 97.285156 17.863281 96.308594 17.640625 C 96.40625 17.515625 96.214844 17.429688 95.738281 17.386719 C 95.738281 17.300781 95.550781 17.257812 95.171875 17.257812 C 95.171875 17.175781 94.980469 17.132812 94.601562 17.132812 C 94.699219 17.003906 94.511719 16.921875 94.035156 16.878906 C 94.035156 16.792969 93.84375 16.75 93.464844 16.75 C 93.464844 16.664062 93.277344 16.621094 92.898438 16.621094 C 90.257812 15.753906 87.703125 14.859375 85.226562 13.949219 C 84.019531 13.449219 82.976562 12.9375 82.101562 12.417969 C 83.199219 12.066406 84.714844 11.960938 86.648438 12.101562 C 90.035156 12.964844 93.066406 13.878906 95.738281 14.839844 Z M 85.511719 13.183594 C 86.308594 13.242188 86.6875 13.371094 86.648438 13.566406 C 85.847656 13.503906 85.46875 13.378906 85.511719 13.183594 Z M 85.511719 13.183594 "/>
</g>
<mask id="mask6">
  <g filter="url(#alpha)">
<rect x="0" y="0" width="300" height="67" style="fill:rgb(0%,0%,0%);fill-opacity:0.764706;stroke:none;"/>
  </g>
</mask>
<clipPath id="clip7">
  <rect x="0" y="0" width="300" height="67"/>
</clipPath>
<g id="surface23" clip-path="url(#clip7)">
<path style=" stroke:none;fill-rule:evenodd;fill:rgb(0%,63.137255%,91.372549%);fill-opacity:1;" d="M 194.035156 13.4375 C 196.648438 13.214844 198.164062 13.425781 198.578125 14.074219 C 196.820312 15.296875 193.980469 16.378906 190.058594 17.324219 C 189.035156 17.515625 187.992188 17.535156 186.933594 17.386719 C 186.75 17.109375 187.03125 16.851562 187.785156 16.621094 C 184.269531 17.257812 182.183594 17.066406 181.535156 16.050781 C 182.945312 15.394531 184.269531 14.738281 185.511719 14.074219 C 185 14.214844 184.527344 14.214844 184.089844 14.074219 C 183.8125 13.910156 183.71875 13.742188 183.808594 13.566406 C 186.152344 12.859375 189.179688 12.625 192.898438 12.863281 C 193.769531 13.007812 194.148438 13.199219 194.035156 13.4375 Z M 194.035156 13.4375 C 192.171875 14.230469 189.902344 14.953125 187.214844 15.605469 C 188.09375 14.996094 189.132812 14.402344 190.339844 13.820312 C 191.386719 13.609375 192.617188 13.480469 194.035156 13.4375 Z M 194.601562 14.074219 C 193.15625 14.863281 191.261719 15.585938 188.921875 16.242188 C 190.386719 15.453125 192.28125 14.734375 194.601562 14.074219 Z M 188.921875 16.242188 C 188.960938 16.433594 188.582031 16.5625 187.785156 16.621094 C 187.742188 16.429688 188.121094 16.300781 188.921875 16.242188 Z M 188.921875 16.242188 "/>
</g>
<mask id="mask7">
  <g filter="url(#alpha)">
<rect x="0" y="0" width="300" height="67" style="fill:rgb(0%,0%,0%);fill-opacity:0.772549;stroke:none;"/>
  </g>
</mask>
<clipPath id="clip8">
  <rect x="0" y="0" width="300" height="67"/>
</clipPath>
<g id="surface26" clip-path="url(#clip8)">
<path style=" stroke:none;fill-rule:evenodd;fill:rgb(0%,63.137255%,91.372549%);fill-opacity:1;" d="M 208.808594 19.425781 C 207.097656 19.703125 205.207031 19.914062 203.125 20.0625 C 202.257812 20.058594 201.59375 19.972656 201.136719 19.808594 C 200.6875 19.40625 200.875 19.027344 201.703125 18.660156 C 203.457031 18.011719 205.632812 17.4375 208.238281 16.941406 C 207.320312 16.910156 206.75 16.804688 206.535156 16.621094 C 204.421875 17.332031 201.957031 17.988281 199.148438 18.597656 C 197.609375 18.925781 196.09375 18.945312 194.601562 18.660156 C 198.933594 17.667969 202.71875 16.585938 205.964844 15.414062 C 205.117188 15.347656 204.453125 15.410156 203.976562 15.605469 C 201.9375 16.304688 199.761719 16.984375 197.441406 17.640625 C 195.828125 17.902344 194.121094 17.945312 192.328125 17.769531 C 191.714844 17.660156 191.621094 17.53125 192.046875 17.386719 C 194.128906 16.75 196.210938 16.113281 198.296875 15.476562 C 199.089844 15.113281 199.660156 14.730469 200 14.328125 C 200.746094 14.054688 201.691406 14.011719 202.839844 14.203125 C 203.082031 14.550781 203.082031 14.890625 202.839844 15.222656 C 205.816406 14.652344 207.804688 14.800781 208.808594 15.667969 C 208.335938 15.855469 208.242188 16.046875 208.523438 16.242188 C 211.597656 15.976562 214.25 16.105469 216.476562 16.621094 C 216.75 16.742188 216.847656 16.871094 216.761719 17.003906 C 214.363281 16.9375 212.28125 17.085938 210.511719 17.449219 C 207.535156 18.007812 205.359375 18.667969 203.976562 19.425781 C 207.71875 18.585938 211.792969 17.84375 216.191406 17.195312 C 219.3125 17.132812 220.355469 17.453125 219.316406 18.152344 C 216.191406 18.851562 213.066406 19.550781 209.941406 20.253906 C 210.800781 20.359375 211.082031 20.507812 210.796875 20.699219 C 208.066406 21.183594 205.511719 21.714844 203.125 22.289062 C 198.003906 22.847656 193.554688 22.65625 189.773438 21.71875 C 189.5 21.597656 189.402344 21.46875 189.488281 21.335938 C 191.8125 21.582031 194.273438 21.6875 196.875 21.652344 C 201.292969 21.023438 205.269531 20.28125 208.808594 19.425781 Z M 208.808594 19.425781 "/>
</g>
<mask id="mask8">
  <g filter="url(#alpha)">
<rect x="0" y="0" width="300" height="67" style="fill:rgb(0%,0%,0%);fill-opacity:0.741176;stroke:none;"/>
  </g>
</mask>
<clipPath id="clip9">
  <rect x="0" y="0" width="300" height="67"/>
</clipPath>
<g id="surface29" clip-path="url(#clip9)">
<path style=" stroke:none;fill-rule:evenodd;fill:rgb(0%,63.137255%,91.372549%);fill-opacity:1;" d="M 92.898438 16.621094 C 93.277344 16.621094 93.464844 16.664062 93.464844 16.75 C 93.84375 16.75 94.035156 16.792969 94.035156 16.878906 C 93.9375 17.003906 94.125 17.089844 94.601562 17.132812 C 94.980469 17.132812 95.171875 17.175781 95.171875 17.257812 C 95.550781 17.257812 95.738281 17.300781 95.738281 17.386719 C 95.640625 17.511719 95.832031 17.597656 96.308594 17.640625 C 96.84375 17.925781 97.222656 18.222656 97.441406 18.535156 C 97.253906 18.660156 97.0625 18.789062 96.875 18.914062 C 95.917969 18.742188 94.96875 18.574219 94.035156 18.40625 C 94.296875 18.667969 94.675781 18.921875 95.171875 19.171875 C 94.773438 19.515625 93.828125 19.726562 92.328125 19.808594 C 90.609375 19.699219 89.09375 19.507812 87.785156 19.234375 C 86.210938 18.785156 84.507812 18.359375 82.671875 17.960938 C 82.332031 17.902344 81.953125 17.878906 81.535156 17.894531 C 83.75 18.585938 86.308594 19.222656 89.203125 19.808594 C 89.628906 19.953125 89.535156 20.078125 88.921875 20.1875 C 85.5 19.445312 82 18.722656 78.410156 18.023438 C 76.785156 17.378906 77.542969 16.953125 80.683594 16.75 C 81.378906 16.796875 82.039062 16.859375 82.671875 16.941406 C 85.804688 17.664062 89.023438 18.367188 92.328125 19.042969 C 90.59375 18.285156 88.226562 17.5625 85.226562 16.878906 C 81.816406 15.871094 82.859375 15.425781 88.351562 15.539062 C 89.8125 15.921875 91.324219 16.285156 92.898438 16.621094 Z M 92.898438 16.621094 "/>
</g>
<mask id="mask9">
  <g filter="url(#alpha)">
<rect x="0" y="0" width="300" height="67" style="fill:rgb(0%,0%,0%);fill-opacity:0.741176;stroke:none;"/>
  </g>
</mask>
<clipPath id="clip10">
  <rect x="0" y="0" width="300" height="67"/>
</clipPath>
<g id="surface32" clip-path="url(#clip10)">
<path style=" stroke:none;fill-rule:evenodd;fill:rgb(0%,63.137255%,91.372549%);fill-opacity:1;" d="M 63.351562 16.113281 C 65.414062 16.070312 67.308594 16.175781 69.035156 16.429688 C 75.167969 17.59375 81.136719 18.804688 86.933594 20.0625 C 87.859375 20.433594 87.953125 20.816406 87.214844 21.207031 C 80.226562 19.75 73.125 18.304688 65.910156 16.878906 C 65.53125 16.960938 65.53125 17.046875 65.910156 17.132812 C 72.0625 18.425781 78.21875 19.722656 84.375 21.015625 C 83.933594 21.171875 83.367188 21.214844 82.671875 21.144531 C 76.421875 19.914062 70.171875 18.683594 63.921875 17.449219 C 62.050781 17.027344 61.859375 16.582031 63.351562 16.113281 Z M 63.351562 16.113281 "/>
</g>
<mask id="mask10">
  <g filter="url(#alpha)">
<rect x="0" y="0" width="300" height="67" style="fill:rgb(0%,0%,0%);fill-opacity:0.878431;stroke:none;"/>
  </g>
</mask>
<clipPath id="clip11">
  <rect x="0" y="0" width="300" height="67"/>
</clipPath>
<g id="surface35" clip-path="url(#clip11)">
<path style=" stroke:none;fill-rule:evenodd;fill:rgb(0%,63.137255%,91.372549%);fill-opacity:1;" d="M 145.738281 18.152344 C 151.953125 17.859375 155.644531 18.414062 156.816406 19.808594 C 162.847656 20.382812 166.445312 21.402344 167.613281 22.863281 C 175.042969 23.886719 178.167969 25.375 176.988281 27.320312 C 180.027344 27.726562 181.824219 28.320312 182.386719 29.105469 C 182.695312 29.957031 182.601562 30.804688 182.101562 31.652344 C 185.144531 31.675781 187.132812 32.015625 188.066406 32.671875 C 189.207031 34.667969 187.5 36.535156 182.953125 38.277344 C 180.691406 38.878906 177.945312 39.304688 174.714844 39.550781 C 173.929688 41.648438 175.539062 43.644531 179.546875 45.535156 C 184.285156 46.652344 190.058594 47.351562 196.875 47.640625 C 204.398438 47.921875 211.972656 48.070312 219.601562 48.085938 C 218.964844 48.671875 217.261719 49.035156 214.488281 49.167969 C 209.507812 49.21875 204.582031 49.179688 199.714844 49.039062 C 201.609375 49.675781 203.503906 50.3125 205.398438 50.949219 C 195.457031 52.925781 183.90625 54.199219 170.738281 54.773438 C 144.722656 55.9375 120.101562 55.085938 96.875 52.222656 C 94.347656 51.871094 91.980469 51.464844 89.773438 51.015625 C 89.625 50.695312 90.003906 50.394531 90.910156 50.121094 C 92.519531 49.675781 94.128906 49.230469 95.738281 48.785156 C 90.621094 48.769531 85.507812 48.769531 80.398438 48.785156 C 78.046875 48.703125 76.058594 48.46875 74.433594 48.085938 C 74.152344 47.917969 74.058594 47.75 74.148438 47.574219 C 84.742188 47.761719 95.160156 47.527344 105.398438 46.875 C 113.238281 46.265625 118.066406 45.054688 119.886719 43.246094 C 121.371094 41.855469 121.84375 40.453125 121.308594 39.039062 C 118.582031 38.949219 116.121094 38.714844 113.921875 38.339844 C 107.550781 36.503906 105.941406 34.484375 109.089844 32.289062 C 111.089844 31.925781 113.078125 31.566406 115.058594 31.207031 C 113.179688 29.640625 114.789062 28.304688 119.886719 27.195312 C 118.644531 25.199219 121.957031 23.753906 129.828125 22.863281 C 130.527344 22.234375 131.570312 21.640625 132.953125 21.082031 C 134.988281 20.628906 137.355469 20.289062 140.058594 20.0625 C 140.6875 19.222656 142.582031 18.585938 145.738281 18.152344 Z M 148.011719 19.171875 C 146.304688 19.652344 145.074219 20.207031 144.316406 20.824219 C 138.308594 21.148438 135.375 21.976562 135.511719 23.308594 C 133.351562 23.601562 131.265625 23.921875 129.261719 24.265625 C 124.960938 25.222656 123.542969 26.371094 125 27.703125 C 119.964844 28.738281 118.070312 30.011719 119.316406 31.527344 C 120.867188 32.089844 121.90625 32.683594 122.441406 33.308594 C 121.664062 33.328125 120.90625 33.308594 120.171875 33.246094 C 118.054688 32.640625 115.78125 32.574219 113.351562 33.054688 C 111.222656 34.914062 113.308594 36.507812 119.601562 37.832031 C 121.542969 37.832031 123.4375 37.855469 125.285156 37.894531 C 127.988281 39.707031 132.722656 41.171875 139.488281 42.289062 C 146.207031 43.273438 152.644531 43.1875 158.808594 42.035156 C 163.976562 40.96875 167.953125 39.714844 170.738281 38.277344 C 171.210938 38.160156 171.777344 38.074219 172.441406 38.023438 C 173.667969 38.332031 174.992188 38.355469 176.421875 38.085938 C 179.53125 37.175781 181.898438 36.179688 183.523438 35.09375 C 185.828125 32.953125 182.703125 32.359375 174.148438 33.308594 C 173.578125 33.265625 173.199219 33.179688 173.011719 33.054688 C 174.054688 32.585938 175.09375 32.121094 176.136719 31.652344 C 178.222656 30.726562 178.410156 29.792969 176.703125 28.851562 C 175.296875 28.523438 173.78125 28.226562 172.160156 27.960938 C 174.851562 25.898438 171.824219 24.496094 163.066406 23.753906 C 162.613281 22.9375 161.476562 22.175781 159.660156 21.464844 C 157.925781 21.148438 155.9375 20.957031 153.691406 20.890625 C 152.542969 20.476562 151.691406 20.03125 151.136719 19.550781 C 150.125 19.40625 149.082031 19.28125 148.011719 19.171875 Z M 148.011719 29.488281 C 145.285156 30.207031 143.105469 31.015625 141.476562 31.90625 C 140.90625 32.496094 141.285156 33.046875 142.613281 33.5625 C 148.894531 34.453125 152.964844 34.09375 154.828125 32.480469 C 153.9375 31.292969 151.664062 30.296875 148.011719 29.488281 Z M 126.421875 41.207031 C 125.53125 42.308594 124.679688 43.410156 123.863281 44.519531 C 122.773438 45.496094 120.597656 46.324219 117.328125 47 C 112.621094 47.488281 108.074219 48.039062 103.691406 48.65625 C 101.496094 49.109375 99.507812 49.597656 97.726562 50.121094 C 96.515625 50.386719 96.609375 50.621094 98.011719 50.824219 C 104.269531 51.609375 110.707031 52.332031 117.328125 52.988281 C 126.257812 53.554688 135.347656 53.917969 144.601562 54.070312 C 163.652344 54.09375 181.359375 53.03125 197.726562 50.886719 C 196.992188 49.996094 195.003906 49.25 191.761719 48.65625 C 185.089844 48.238281 179.5 47.453125 175 46.300781 C 171.8125 44.769531 169.917969 43.15625 169.316406 41.460938 C 154.511719 45.246094 140.210938 45.164062 126.421875 41.207031 Z M 126.421875 41.207031 "/>
</g>
<mask id="mask11">
  <g filter="url(#alpha)">
<rect x="0" y="0" width="300" height="67" style="fill:rgb(0%,0%,0%);fill-opacity:0.796078;stroke:none;"/>
  </g>
</mask>
<clipPath id="clip12">
  <rect x="0" y="0" width="300" height="67"/>
</clipPath>
<g id="surface38" clip-path="url(#clip12)">
<path style=" stroke:none;fill-rule:evenodd;fill:rgb(0%,63.137255%,91.372549%);fill-opacity:1;" d="M 214.488281 22.226562 C 210.796875 22.355469 209.375 22.015625 210.226562 21.207031 C 211.648438 20.71875 213.445312 20.316406 215.625 20 C 214.683594 19.90625 214.398438 19.757812 214.773438 19.550781 C 216.875 18.988281 219.429688 18.5625 222.441406 18.277344 C 223.957031 18.363281 224.90625 18.574219 225.285156 18.914062 C 224.734375 19.1875 224.070312 19.441406 223.296875 19.679688 C 219.816406 20.246094 216.5 20.863281 213.351562 21.527344 C 214.152344 21.566406 214.910156 21.523438 215.625 21.398438 C 218.984375 20.703125 222.773438 20.175781 226.988281 19.808594 C 230.136719 19.902344 231.085938 20.285156 229.828125 20.953125 C 225.015625 21.886719 219.617188 22.609375 213.636719 23.117188 C 212.898438 23.042969 212.421875 22.914062 212.214844 22.738281 C 212.992188 22.566406 213.75 22.394531 214.488281 22.226562 Z M 214.488281 22.226562 "/>
</g>
<mask id="mask12">
  <g filter="url(#alpha)">
<rect x="0" y="0" width="300" height="67" style="fill:rgb(0%,0%,0%);fill-opacity:0.658824;stroke:none;"/>
  </g>
</mask>
<clipPath id="clip13">
  <rect x="0" y="0" width="300" height="67"/>
</clipPath>
<g id="surface41" clip-path="url(#clip13)">
<path style=" stroke:none;fill-rule:evenodd;fill:rgb(0%,63.137255%,91.372549%);fill-opacity:1;" d="M 56.535156 19.933594 C 59.851562 19.808594 61.460938 20.105469 61.363281 20.824219 C 61.128906 20.882812 60.84375 20.925781 60.511719 20.953125 C 59.574219 20.808594 58.722656 20.636719 57.953125 20.445312 C 57.527344 20.523438 57.054688 20.585938 56.535156 20.636719 C 57.292969 20.976562 58.429688 21.230469 59.941406 21.398438 C 57.933594 21.785156 56.324219 21.679688 55.113281 21.082031 C 54.621094 20.636719 55.09375 20.253906 56.535156 19.933594 Z M 56.535156 19.933594 "/>
</g>
<mask id="mask13">
  <g filter="url(#alpha)">
<rect x="0" y="0" width="300" height="67" style="fill:rgb(0%,0%,0%);fill-opacity:0.729412;stroke:none;"/>
  </g>
</mask>
<clipPath id="clip14">
  <rect x="0" y="0" width="300" height="67"/>
</clipPath>
<g id="surface44" clip-path="url(#clip14)">
<path style=" stroke:none;fill-rule:evenodd;fill:rgb(0%,63.137255%,91.372549%);fill-opacity:1;" d="M 63.921875 20.824219 C 70.003906 21.15625 75.210938 21.835938 79.546875 22.863281 C 79.925781 23.160156 79.925781 23.457031 79.546875 23.753906 C 75.230469 22.792969 70.210938 22.074219 64.488281 21.589844 C 63.867188 21.765625 64.058594 21.914062 65.058594 22.035156 C 69.636719 22.546875 73.804688 23.1875 77.558594 23.945312 C 77.273438 24.011719 76.988281 24.074219 76.703125 24.136719 C 72.394531 23.515625 67.941406 22.941406 63.351562 22.417969 C 60.933594 21.8125 61.125 21.28125 63.921875 20.824219 Z M 63.921875 20.824219 "/>
</g>
<mask id="mask14">
  <g filter="url(#alpha)">
<rect x="0" y="0" width="300" height="67" style="fill:rgb(0%,0%,0%);fill-opacity:0.776471;stroke:none;"/>
  </g>
</mask>
<clipPath id="clip15">
  <rect x="0" y="0" width="300" height="67"/>
</clipPath>
<g id="surface47" clip-path="url(#clip15)">
<path style=" stroke:none;fill-rule:evenodd;fill:rgb(0%,63.137255%,91.372549%);fill-opacity:1;" d="M 230.398438 22.355469 C 236.253906 21.90625 238.242188 22.332031 236.363281 23.628906 C 232.210938 24.273438 227.757812 24.804688 223.011719 25.21875 C 221.628906 25.253906 220.304688 25.1875 219.035156 25.03125 C 218.347656 24.929688 218.347656 24.824219 219.035156 24.710938 C 223.714844 24.3125 228.261719 23.847656 232.671875 23.308594 C 233.871094 23.160156 234.25 22.96875 233.808594 22.738281 C 228.851562 23.285156 223.832031 23.792969 218.75 24.265625 C 216.460938 24.132812 215.894531 23.835938 217.046875 23.375 C 221.824219 22.550781 226.652344 21.746094 231.535156 20.953125 C 233.0625 21.152344 233.539062 21.449219 232.953125 21.84375 C 232.007812 22.003906 231.15625 22.171875 230.398438 22.355469 Z M 230.398438 22.355469 "/>
</g>
<mask id="mask15">
  <g filter="url(#alpha)">
<rect x="0" y="0" width="300" height="67" style="fill:rgb(0%,0%,0%);fill-opacity:0.764706;stroke:none;"/>
  </g>
</mask>
<clipPath id="clip16">
  <rect x="0" y="0" width="300" height="67"/>
</clipPath>
<g id="surface50" clip-path="url(#clip16)">
<path style=" stroke:none;fill-rule:evenodd;fill:rgb(0%,63.137255%,91.372549%);fill-opacity:1;" d="M 70.738281 24.519531 C 72.640625 24.992188 73.777344 25.542969 74.148438 26.175781 C 65.570312 25.34375 56.859375 24.578125 48.011719 23.882812 C 54.457031 24.605469 61.085938 25.261719 67.898438 25.855469 C 69.128906 26.046875 70.359375 26.238281 71.589844 26.429688 C 71.867188 26.550781 71.960938 26.679688 71.875 26.8125 C 66.644531 26.28125 61.34375 25.769531 55.964844 25.285156 C 51.761719 24.835938 47.597656 24.347656 43.464844 23.820312 C 42.746094 23.589844 42.746094 23.355469 43.464844 23.117188 C 45.140625 22.972656 46.84375 22.949219 48.578125 23.054688 C 52.292969 23.269531 55.890625 23.542969 59.375 23.882812 C 58.121094 23.261719 58.878906 22.835938 61.648438 22.609375 C 65.65625 22.910156 69.445312 23.3125 73.011719 23.820312 C 75.484375 24.183594 76.242188 24.671875 75.285156 25.285156 C 74.242188 24.878906 72.726562 24.625 70.738281 24.519531 Z M 70.738281 24.519531 C 67.804688 24.019531 64.585938 23.660156 61.078125 23.4375 C 64 23.933594 67.222656 24.296875 70.738281 24.519531 Z M 70.738281 24.519531 "/>
</g>
<mask id="mask16">
  <g filter="url(#alpha)">
<rect x="0" y="0" width="300" height="67" style="fill:rgb(0%,0%,0%);fill-opacity:0.760784;stroke:none;"/>
  </g>
</mask>
<clipPath id="clip17">
  <rect x="0" y="0" width="300" height="67"/>
</clipPath>
<g id="surface53" clip-path="url(#clip17)">
<path style=" stroke:none;fill-rule:evenodd;fill:rgb(0%,63.137255%,91.372549%);fill-opacity:1;" d="M 55.964844 25.285156 C 56.257812 25.5 56.636719 25.710938 57.101562 25.921875 C 60.957031 26.199219 64.746094 26.519531 68.464844 26.875 C 69.128906 27.023438 69.792969 27.171875 70.453125 27.320312 C 70.898438 27.507812 70.804688 27.675781 70.171875 27.832031 C 62.375 27.023438 54.230469 26.472656 45.738281 26.175781 C 52.925781 26.832031 60.3125 27.40625 67.898438 27.894531 C 68.628906 28.0625 68.53125 28.210938 67.613281 28.339844 C 63.058594 27.800781 58.230469 27.527344 53.125 27.511719 C 52.828125 27.601562 52.449219 27.664062 51.988281 27.703125 C 51.316406 27.507812 50.746094 27.296875 50.285156 27.066406 C 46.792969 26.757812 43.289062 26.460938 39.773438 26.175781 C 39.695312 25.261719 41.683594 24.898438 45.738281 25.09375 C 48.074219 25.25 50.347656 25.441406 52.558594 25.667969 C 53.546875 25.46875 54.683594 25.34375 55.964844 25.285156 Z M 55.964844 25.285156 "/>
</g>
<mask id="mask17">
  <g filter="url(#alpha)">
<rect x="0" y="0" width="300" height="67" style="fill:rgb(0%,0%,0%);fill-opacity:0.792157;stroke:none;"/>
  </g>
</mask>
<clipPath id="clip18">
  <rect x="0" y="0" width="300" height="67"/>
</clipPath>
<g id="surface56" clip-path="url(#clip18)">
<path style=" stroke:none;fill-rule:evenodd;fill:rgb(0%,63.137255%,91.372549%);fill-opacity:1;" d="M 240.625 26.175781 C 242.578125 26.210938 243.714844 26.445312 244.035156 26.875 C 242.707031 27.429688 240.625 27.769531 237.785156 27.894531 C 240.105469 27.925781 242.378906 28.011719 244.601562 28.148438 C 246.789062 29.125 245.460938 29.71875 240.625 29.933594 C 237.324219 30.0625 234.007812 30.167969 230.683594 30.25 C 229.363281 30.199219 228.132812 30.09375 226.988281 29.933594 C 226.511719 29.804688 226.324219 29.65625 226.421875 29.488281 C 232.128906 29.5 237.621094 29.285156 242.898438 28.851562 C 243.515625 28.710938 243.515625 28.582031 242.898438 28.46875 C 242.082031 28.398438 241.226562 28.355469 240.339844 28.339844 C 236.570312 28.53125 232.78125 28.703125 228.976562 28.851562 C 225.003906 28.789062 224.339844 28.429688 226.988281 27.769531 C 231.316406 27.410156 235.671875 27.070312 240.058594 26.75 C 240.558594 26.578125 240.746094 26.386719 240.625 26.175781 Z M 240.625 26.175781 "/>
</g>
<mask id="mask18">
  <g filter="url(#alpha)">
<rect x="0" y="0" width="300" height="67" style="fill:rgb(0%,0%,0%);fill-opacity:0.866667;stroke:none;"/>
  </g>
</mask>
<clipPath id="clip19">
  <rect x="0" y="0" width="300" height="67"/>
</clipPath>
<g id="surface59" clip-path="url(#clip19)">
<path style=" stroke:none;fill-rule:evenodd;fill:rgb(0%,63.137255%,91.372549%);fill-opacity:1;" d="M 147.441406 26.558594 C 148.109375 26.53125 148.679688 26.574219 149.148438 26.683594 C 151.484375 28.074219 154.417969 29.390625 157.953125 30.632812 C 159.96875 31.757812 159.78125 32.863281 157.386719 33.945312 C 150.945312 35.472656 144.507812 35.472656 138.066406 33.945312 C 136.09375 32.828125 136.28125 31.722656 138.636719 30.632812 C 142.335938 29.355469 145.273438 28 147.441406 26.558594 Z M 148.011719 29.488281 C 145.285156 30.207031 143.105469 31.015625 141.476562 31.90625 C 140.90625 32.496094 141.285156 33.046875 142.613281 33.5625 C 148.894531 34.453125 152.964844 34.09375 154.828125 32.480469 C 153.9375 31.292969 151.664062 30.296875 148.011719 29.488281 Z M 148.011719 29.488281 "/>
</g>
<mask id="mask19">
  <g filter="url(#alpha)">
<rect x="0" y="0" width="300" height="67" style="fill:rgb(0%,0%,0%);fill-opacity:0.792157;stroke:none;"/>
  </g>
</mask>
<clipPath id="clip20">
  <rect x="0" y="0" width="300" height="67"/>
</clipPath>
<g id="surface62" clip-path="url(#clip20)">
<path style=" stroke:none;fill-rule:evenodd;fill:rgb(0%,63.137255%,91.372549%);fill-opacity:1;" d="M 50.851562 34.582031 C 48.734375 34.386719 48.167969 34.046875 49.148438 33.5625 C 51.058594 33.285156 53.144531 33.09375 55.398438 32.992188 C 49.457031 32.957031 46.996094 32.296875 48.011719 31.015625 C 48.433594 30.914062 48.90625 30.832031 49.433594 30.761719 C 49.890625 31.246094 51.214844 31.5 53.410156 31.527344 C 54.863281 31.414062 56.191406 31.242188 57.386719 31.015625 C 58.980469 31.371094 60.875 31.625 63.066406 31.78125 C 66.511719 31.398438 66.414062 31.039062 62.785156 30.699219 C 58.589844 30.527344 54.613281 30.230469 50.851562 29.804688 C 49.433594 29.296875 49.339844 28.769531 50.566406 28.214844 C 52.5625 27.941406 54.648438 27.898438 56.816406 28.085938 C 57.671875 28.316406 57.769531 28.550781 57.101562 28.785156 C 55.28125 28.839844 53.574219 28.796875 51.988281 28.660156 C 52.367188 28.828125 52.9375 28.957031 53.691406 29.042969 C 57.472656 29.015625 61.261719 29.015625 65.058594 29.042969 C 67.300781 29.351562 68.4375 29.796875 68.464844 30.378906 C 67.050781 30.171875 65.535156 29.980469 63.921875 29.804688 C 61.4375 29.699219 58.972656 29.722656 56.535156 29.871094 C 59.167969 30.03125 61.820312 30.179688 64.488281 30.316406 C 68.753906 30.746094 69.511719 31.382812 66.761719 32.226562 C 65.859375 32.335938 64.914062 32.421875 63.921875 32.480469 C 68.726562 32.496094 73.460938 32.625 78.125 32.863281 C 81.734375 33.320312 83.15625 33.980469 82.386719 34.835938 C 80.363281 34.195312 77.617188 33.835938 74.148438 33.753906 C 66.9375 33.742188 59.738281 33.824219 52.558594 34.007812 C 57.292969 34.050781 62.027344 34.09375 66.761719 34.136719 C 68.398438 34.347656 68.871094 34.667969 68.183594 35.09375 C 67.667969 35.246094 67.007812 35.351562 66.191406 35.410156 C 67.121094 35.472656 68.070312 35.496094 69.035156 35.472656 C 69.035156 35.601562 69.035156 35.730469 69.035156 35.855469 C 68.4375 35.835938 67.867188 35.859375 67.328125 35.921875 C 69.003906 35.933594 69.761719 36.125 69.601562 36.492188 C 63.988281 36.625 58.496094 36.878906 53.125 37.257812 C 53.125 37.386719 53.125 37.511719 53.125 37.640625 C 57.800781 37.453125 62.441406 37.238281 67.046875 37.003906 C 69.9375 37.054688 70.980469 37.371094 70.171875 37.957031 C 64.171875 38.238281 58.488281 38.660156 53.125 39.230469 C 52 38.675781 52.757812 38.292969 55.398438 38.085938 C 50.625 38.164062 49.203125 37.71875 51.136719 36.75 C 52.074219 36.59375 53.113281 36.488281 54.261719 36.429688 C 50.425781 36.175781 48.816406 35.601562 49.433594 34.710938 C 49.8125 34.613281 50.285156 34.570312 50.851562 34.582031 Z M 56.535156 32.035156 C 56.121094 32.191406 55.550781 32.316406 54.828125 32.417969 C 57.125 32.683594 59.398438 32.703125 61.648438 32.480469 C 59.929688 32.332031 58.226562 32.183594 56.535156 32.035156 Z M 50.851562 34.582031 C 51.089844 34.675781 51.46875 34.738281 51.988281 34.773438 C 56.453125 34.914062 60.808594 34.828125 65.058594 34.519531 C 60.316406 34.46875 55.582031 34.492188 50.851562 34.582031 Z M 57.671875 35.601562 C 56.652344 35.703125 55.515625 35.769531 54.261719 35.792969 C 56.5625 35.859375 58.835938 35.816406 61.078125 35.664062 C 59.957031 35.601562 58.820312 35.582031 57.671875 35.601562 Z M 57.671875 35.601562 "/>
</g>
<mask id="mask20">
  <g filter="url(#alpha)">
<rect x="0" y="0" width="300" height="67" style="fill:rgb(0%,0%,0%);fill-opacity:0.784314;stroke:none;"/>
  </g>
</mask>
<clipPath id="clip21">
  <rect x="0" y="0" width="300" height="67"/>
</clipPath>
<g id="surface65" clip-path="url(#clip21)">
<path style=" stroke:none;fill-rule:evenodd;fill:rgb(0%,63.137255%,91.372549%);fill-opacity:1;" d="M 237.214844 30.25 C 242.25 30 245.945312 30.382812 248.296875 31.398438 C 248.539062 31.742188 248.445312 32.082031 248.011719 32.417969 C 246.121094 32.417969 244.796875 32.226562 244.035156 31.84375 C 239.253906 31.730469 234.519531 31.769531 229.828125 31.972656 C 230.300781 32.089844 230.867188 32.171875 231.535156 32.226562 C 235.699219 32.269531 239.867188 32.3125 244.035156 32.355469 C 248.078125 32.726562 248.457031 33.234375 245.171875 33.882812 C 240.445312 33.871094 235.710938 33.832031 230.964844 33.753906 C 228.347656 33.699219 227.023438 33.378906 226.988281 32.800781 C 232.621094 33.039062 238.300781 33.101562 244.035156 32.992188 C 240.738281 32.765625 237.421875 32.746094 234.089844 32.925781 C 231.632812 32.898438 229.550781 32.6875 227.839844 32.289062 C 227.460938 31.992188 227.460938 31.695312 227.839844 31.398438 C 229.175781 31.242188 230.597656 31.136719 232.101562 31.078125 C 231.5625 31.019531 230.996094 30.996094 230.398438 31.015625 C 230.398438 30.847656 230.398438 30.675781 230.398438 30.507812 C 232.773438 30.460938 235.046875 30.378906 237.214844 30.25 Z M 237.214844 30.25 "/>
</g>
<mask id="mask21">
  <g filter="url(#alpha)">
<rect x="0" y="0" width="300" height="67" style="fill:rgb(0%,0%,0%);fill-opacity:0.788235;stroke:none;"/>
  </g>
</mask>
<clipPath id="clip22">
  <rect x="0" y="0" width="300" height="67"/>
</clipPath>
<g id="surface68" clip-path="url(#clip22)">
<path style=" stroke:none;fill-rule:evenodd;fill:rgb(0%,63.137255%,91.372549%);fill-opacity:1;" d="M 240.625 40.1875 C 241.570312 41.058594 240.054688 41.417969 236.078125 41.269531 C 231.914062 40.988281 227.9375 40.605469 224.148438 40.125 C 222.296875 39.855469 222.105469 39.578125 223.578125 39.296875 C 222.609375 38.792969 222.988281 38.34375 224.714844 37.957031 C 227.761719 37.878906 230.792969 37.902344 233.808594 38.023438 C 229.824219 37.628906 225.660156 37.308594 221.308594 37.066406 C 213.570312 36.335938 210.539062 35.039062 212.214844 33.179688 C 212.785156 33.179688 213.351562 33.179688 213.921875 33.179688 C 213.746094 34.398438 216.210938 35.226562 221.308594 35.664062 C 227.941406 36.203125 234.757812 36.5 241.761719 36.558594 C 238.007812 36.355469 234.21875 36.183594 230.398438 36.046875 C 227.820312 35.828125 226.96875 35.425781 227.839844 34.835938 C 228.265625 34.757812 228.742188 34.695312 229.261719 34.644531 C 232.101562 34.605469 234.941406 34.5625 237.785156 34.519531 C 235.675781 34.496094 233.59375 34.433594 231.535156 34.328125 C 231.652344 34.253906 231.84375 34.191406 232.101562 34.136719 C 237.191406 33.933594 241.925781 34.125 246.308594 34.710938 C 247.980469 35.304688 247.792969 35.855469 245.738281 36.367188 C 246.9375 37.144531 245.707031 37.570312 242.046875 37.640625 C 232.308594 37.054688 232.023438 37.203125 241.191406 38.085938 C 243.726562 38.699219 244.105469 39.378906 242.328125 40.125 C 241.789062 40.183594 241.222656 40.207031 240.625 40.1875 Z M 232.101562 35.472656 C 235.933594 35.714844 239.816406 35.929688 243.75 36.109375 C 244.753906 35.898438 244.46875 35.75 242.898438 35.664062 C 239.871094 35.554688 236.839844 35.445312 233.808594 35.347656 C 233.109375 35.347656 232.542969 35.390625 232.101562 35.472656 Z M 240.058594 40.058594 C 240.144531 39.886719 240.050781 39.714844 239.773438 39.550781 C 235.707031 39.097656 231.445312 38.757812 226.988281 38.53125 C 225.609375 38.710938 225.800781 38.859375 227.558594 38.976562 C 231.894531 39.25 236.0625 39.613281 240.058594 40.058594 Z M 225.851562 39.550781 C 227.019531 39.539062 227.964844 39.621094 228.691406 39.804688 C 227.527344 39.816406 226.578125 39.734375 225.851562 39.550781 Z M 232.101562 40.058594 C 233.644531 40.28125 235.347656 40.386719 237.214844 40.378906 C 235.679688 40.136719 233.972656 40.027344 232.101562 40.058594 Z M 232.101562 40.058594 "/>
</g>
<mask id="mask22">
  <g filter="url(#alpha)">
<rect x="0" y="0" width="300" height="67" style="fill:rgb(0%,0%,0%);fill-opacity:0.8;stroke:none;"/>
  </g>
</mask>
<clipPath id="clip23">
  <rect x="0" y="0" width="300" height="67"/>
</clipPath>
<g id="surface71" clip-path="url(#clip23)">
<path style=" stroke:none;fill-rule:evenodd;fill:rgb(0%,63.137255%,91.372549%);fill-opacity:1;" d="M 73.011719 40.695312 C 76.800781 40.671875 77.179688 40.863281 74.148438 41.269531 C 75.730469 41.300781 77.246094 41.386719 78.691406 41.523438 C 79.167969 41.652344 79.359375 41.800781 79.261719 41.96875 C 77.332031 42.035156 75.4375 42.140625 73.578125 42.289062 C 70.171875 42.714844 66.761719 43.136719 63.351562 43.5625 C 66.601562 43.410156 69.632812 43.113281 72.441406 42.671875 C 74.355469 42.472656 76.34375 42.324219 78.410156 42.226562 C 81.320312 42.359375 81.984375 42.675781 80.398438 43.179688 C 76.988281 43.691406 73.578125 44.199219 70.171875 44.710938 C 69.742188 44.792969 69.554688 44.902344 69.601562 45.027344 C 73.117188 44.515625 76.714844 44.027344 80.398438 43.5625 C 82.597656 43.4375 84.492188 43.546875 86.078125 43.882812 C 81.632812 44.773438 77.085938 45.640625 72.441406 46.492188 C 69.375 46.804688 68.238281 46.570312 69.035156 45.792969 C 66.601562 45.773438 65.277344 45.476562 65.058594 44.898438 C 65.382812 44.542969 66.136719 44.246094 67.328125 44.007812 C 65.457031 44.121094 63.5625 44.140625 61.648438 44.070312 C 61.015625 43.722656 60.921875 43.363281 61.363281 42.988281 C 63.714844 42.523438 66.269531 42.144531 69.035156 41.84375 C 66.949219 41.976562 64.867188 42.125 62.785156 42.289062 C 59.023438 42.320312 56.5625 41.917969 55.398438 41.078125 C 55.585938 40.953125 55.964844 40.867188 56.535156 40.824219 C 58.203125 40.960938 59.90625 40.980469 61.648438 40.886719 C 64.8125 40.660156 67.839844 40.363281 70.738281 39.996094 C 66.082031 40.171875 61.441406 40.40625 56.816406 40.695312 C 55.875 40.675781 55.117188 40.589844 54.546875 40.441406 C 54.167969 40.144531 54.167969 39.847656 54.546875 39.550781 C 58.203125 39.085938 62.085938 38.722656 66.191406 38.46875 C 68.519531 38.3125 70.507812 38.417969 72.160156 38.785156 C 72.546875 38.949219 72.453125 39.097656 71.875 39.230469 C 74.410156 39.632812 74.789062 40.121094 73.011719 40.695312 Z M 67.328125 39.296875 C 64.007812 39.609375 60.597656 39.882812 57.101562 40.125 C 58.050781 40.207031 58.996094 40.207031 59.941406 40.125 C 63.359375 39.867188 66.765625 39.613281 70.171875 39.359375 C 69.242188 39.296875 68.292969 39.273438 67.328125 39.296875 Z M 66.191406 41.460938 C 64.292969 41.554688 62.398438 41.660156 60.511719 41.78125 C 62.710938 41.902344 64.601562 41.796875 66.191406 41.460938 Z M 66.191406 41.460938 "/>
</g>
<mask id="mask23">
  <g filter="url(#alpha)">
<rect x="0" y="0" width="300" height="67" style="fill:rgb(0%,0%,0%);fill-opacity:0.784314;stroke:none;"/>
  </g>
</mask>
<clipPath id="clip24">
  <rect x="0" y="0" width="300" height="67"/>
</clipPath>
<g id="surface74" clip-path="url(#clip24)">
<path style=" stroke:none;fill-rule:evenodd;fill:rgb(0%,63.137255%,91.372549%);fill-opacity:1;" d="M 220.738281 40.441406 C 227.050781 40.816406 233.300781 41.238281 239.488281 41.714844 C 239.671875 42 239.292969 42.230469 238.351562 42.417969 C 236.988281 42.441406 235.664062 42.503906 234.375 42.605469 C 236.878906 43.648438 235.554688 44.097656 230.398438 43.945312 C 229.449219 43.816406 228.503906 43.691406 227.558594 43.5625 C 225.679688 42.996094 226.246094 42.742188 229.261719 42.796875 C 229.683594 43.296875 231.007812 43.53125 233.238281 43.5 C 233.335938 43.332031 233.144531 43.183594 232.671875 43.054688 C 227.886719 42.550781 223.4375 41.933594 219.316406 41.207031 C 218.769531 40.84375 219.242188 40.589844 220.738281 40.441406 Z M 220.738281 40.441406 "/>
</g>
<mask id="mask24">
  <g filter="url(#alpha)">
<rect x="0" y="0" width="300" height="67" style="fill:rgb(0%,0%,0%);fill-opacity:0.745098;stroke:none;"/>
  </g>
</mask>
<clipPath id="clip25">
  <rect x="0" y="0" width="300" height="67"/>
</clipPath>
<g id="surface77" clip-path="url(#clip25)">
<path style=" stroke:none;fill-rule:evenodd;fill:rgb(0%,63.137255%,91.372549%);fill-opacity:1;" d="M 221.308594 46.300781 C 218.480469 45.691406 215.546875 45.09375 212.5 44.519531 C 211.273438 44.046875 211.367188 43.601562 212.785156 43.179688 C 215.121094 43.121094 217.394531 43.183594 219.601562 43.371094 C 218.5 43.1875 217.460938 42.976562 216.476562 42.734375 C 216.15625 42.578125 216.347656 42.453125 217.046875 42.351562 C 221.429688 42.910156 225.410156 43.585938 228.976562 44.390625 C 231.089844 45.242188 230.429688 45.960938 226.988281 46.554688 C 225.246094 45.253906 221.457031 44.382812 215.625 43.945312 C 214.980469 43.847656 214.410156 43.871094 213.921875 44.007812 C 214.925781 44.425781 216.25 44.785156 217.898438 45.089844 C 221.199219 45.511719 223.851562 46.085938 225.851562 46.8125 C 224.324219 47.457031 222.242188 47.5625 219.601562 47.128906 C 216.855469 46.597656 214.109375 46.066406 211.363281 45.535156 C 210.367188 45.21875 209.515625 44.878906 208.808594 44.519531 C 209.296875 44.378906 209.867188 44.359375 210.511719 44.453125 C 213.9375 45.132812 217.539062 45.75 221.308594 46.300781 Z M 223.578125 44.007812 C 224.484375 44.199219 225.433594 44.386719 226.421875 44.582031 C 226.800781 44.667969 227.179688 44.667969 227.558594 44.582031 C 226.585938 44.261719 225.257812 44.070312 223.578125 44.007812 Z M 223.578125 44.007812 "/>
</g>
</defs>
<g id="surface1">
<use xlink:href="#surface5" mask="url(#mask0)"/>
<use xlink:href="#surface8" mask="url(#mask1)"/>
<use xlink:href="#surface11" mask="url(#mask2)"/>
<use xlink:href="#surface14" mask="url(#mask3)"/>
<use xlink:href="#surface17" mask="url(#mask4)"/>
<use xlink:href="#surface20" mask="url(#mask5)"/>
<use xlink:href="#surface23" mask="url(#mask6)"/>
<use xlink:href="#surface26" mask="url(#mask7)"/>
<use xlink:href="#surface29" mask="url(#mask8)"/>
<use xlink:href="#surface32" mask="url(#mask9)"/>
<use xlink:href="#surface35" mask="url(#mask10)"/>
<use xlink:href="#surface38" mask="url(#mask11)"/>
<use xlink:href="#surface41" mask="url(#mask12)"/>
<use xlink:href="#surface44" mask="url(#mask13)"/>
<use xlink:href="#surface47" mask="url(#mask14)"/>
<use xlink:href="#surface50" mask="url(#mask15)"/>
<use xlink:href="#surface53" mask="url(#mask16)"/>
<use xlink:href="#surface56" mask="url(#mask17)"/>
<use xlink:href="#surface59" mask="url(#mask18)"/>
<use xlink:href="#surface62" mask="url(#mask19)"/>
<use xlink:href="#surface65" mask="url(#mask20)"/>
<use xlink:href="#surface68" mask="url(#mask21)"/>
<use xlink:href="#surface71" mask="url(#mask22)"/>
<use xlink:href="#surface74" mask="url(#mask23)"/>
<use xlink:href="#surface77" mask="url(#mask24)"/>
</g>
</svg>
