<?xml version="1.0" encoding="UTF-8"?>
<!DOCTYPE svg PUBLIC "-//W3C//DTD SVG 1.1//EN" "http://www.w3.org/Graphics/SVG/1.1/DTD/svg11.dtd">
<svg xmlns="http://www.w3.org/2000/svg" version="1.1" width="528px" height="526px" style="shape-rendering:geometricPrecision; text-rendering:geometricPrecision; image-rendering:optimizeQuality; fill-rule:evenodd; clip-rule:evenodd" xmlns:xlink="http://www.w3.org/1999/xlink">
<g><path style="opacity:0.892" fill="#00a1e9" d="M 262.5,-0.5 C 262.833,-0.5 263.167,-0.5 263.5,-0.5C 278.148,14.6598 296.148,23.8264 317.5,27C 336.191,29.5031 354.858,32.1697 373.5,35C 403.12,38.6211 420.287,55.1211 425,84.5C 425.665,89.1561 426.165,93.8228 426.5,98.5C 452.96,100.973 470.793,114.64 480,139.5C 482.072,145.048 483.738,150.715 485,156.5C 488.108,174.148 491.108,191.814 494,209.5C 498.476,229.795 509.643,245.128 527.5,255.5C 527.5,256.167 527.5,256.833 527.5,257.5C 507.673,270.781 496.173,289.447 493,313.5C 490.578,330.539 487.912,347.539 485,364.5C 479.197,392.97 463.031,413.137 436.5,425C 430.745,426.308 425.245,428.141 420,430.5C 417.779,436.61 414.779,442.277 411,447.5C 403.849,455.806 397.182,464.473 391,473.5C 386.582,480.921 384.082,488.921 383.5,497.5C 379.089,497.797 375.089,496.631 371.5,494C 365.655,488.82 359.822,483.654 354,478.5C 336.401,487.362 325.234,501.362 320.5,520.5C 315.438,518.262 310.772,515.429 306.5,512C 301.588,506.582 296.254,501.749 290.5,497.5C 286.37,499.735 282.37,502.235 278.5,505C 271.541,511.789 264.875,518.622 258.5,525.5C 257.833,525.5 257.167,525.5 256.5,525.5C 249.092,514.092 239.425,505.092 227.5,498.5C 220.349,506.747 212.016,513.58 202.5,519C 199.911,520.314 197.244,520.981 194.5,521C 192.606,519.921 192.273,518.587 193.5,517C 190.796,505.929 185.463,496.262 177.5,488C 171.826,485.658 166.659,482.492 162,478.5C 153.784,485.692 144.95,492.025 135.5,497.5C 134.298,486.395 130.798,476.061 125,466.5C 115.606,452.769 106.606,438.769 98,424.5C 80.6081,420.455 66.2747,411.455 55,397.5C 48.1355,389.112 42.8022,379.779 39,369.5C 35.1174,348.871 31.4507,328.204 28,307.5C 24.7786,285.718 15.2786,267.385 -0.5,252.5C -0.5,251.833 -0.5,251.167 -0.5,250.5C 16.3723,239.793 26.539,224.459 30,204.5C 32.8546,180.034 37.8546,156.034 45,132.5C 50.348,121.484 58.1813,112.651 68.5,106C 77.4573,101.022 86.7906,96.8553 96.5,93.5C 97.8481,69.6965 108.515,51.5298 128.5,39C 133.091,37.1363 137.757,35.4696 142.5,34C 168.215,31.022 193.882,27.6887 219.5,24C 236.014,19.4167 250.348,11.25 262.5,-0.5 Z M 262.5,13.5 C 273.544,23.1909 286.21,30.0242 300.5,34C 324.049,38.4021 347.716,42.0687 371.5,45C 399.653,48.1501 414.32,63.8168 415.5,92C 415.646,94.0342 414.98,95.7009 413.5,97C 403.002,98.3325 397.002,104.166 395.5,114.5C 398.752,126.465 405.752,129.632 416.5,124C 420.481,120.18 423.481,115.68 425.5,110.5C 440.002,109.663 451.835,114.997 461,126.5C 468.175,136.853 473.175,148.186 476,160.5C 478.573,178.181 481.24,195.848 484,213.5C 487.543,231.344 496.376,245.844 510.5,257C 495.599,269.29 486.765,285.123 484,304.5C 480.907,324.486 477.907,344.486 475,364.5C 468.962,393.037 451.796,410.37 423.5,416.5C 421.565,404.386 414.565,398.886 402.5,400C 391.536,404.229 388.369,411.729 393,422.5C 397.158,426.495 401.992,429.329 407.5,431C 399.523,443.786 390.69,455.953 381,467.5C 378.475,472.079 376.141,476.746 374,481.5C 369.643,478.643 366.143,474.977 363.5,470.5C 369.572,464.022 373.239,456.355 374.5,447.5C 371.966,432.16 363.633,427.66 349.5,434C 345.271,438.439 343.271,443.772 343.5,450C 344.299,456.324 345.466,462.491 347,468.5C 338.036,475.795 329.37,483.462 321,491.5C 318.235,495.261 315.902,499.261 314,503.5C 309.333,500.167 305.333,496.167 302,491.5C 301.333,490.167 301.333,488.833 302,487.5C 307.428,482.143 310.595,475.643 311.5,468C 310.856,460.352 306.856,455.352 299.5,453C 291.578,452.901 286.411,456.734 284,464.5C 283.176,467.785 282.676,471.118 282.5,474.5C 283.083,478.887 283.583,483.22 284,487.5C 274.699,494.468 265.699,501.802 257,509.5C 249.397,502.57 241.73,495.57 234,488.5C 234.647,484.223 235.481,479.89 236.5,475.5C 235.429,459.898 227.429,453.731 212.5,457C 205.13,464.975 204.63,473.475 211,482.5C 213.312,485.646 215.812,488.646 218.5,491.5C 214.452,497.882 209.118,502.882 202.5,506.5C 199.262,501.032 195.762,495.699 192,490.5C 184.5,483 177,475.5 169.5,468C 174.237,458.438 175.07,448.605 172,438.5C 168.292,432.15 162.792,429.65 155.5,431C 151.612,433.222 148.779,436.388 147,440.5C 144.934,451.473 146.767,461.639 152.5,471C 150.033,474.634 147.033,477.801 143.5,480.5C 136.292,463.464 126.459,448.13 114,434.5C 112.627,431.588 111.127,428.754 109.5,426C 126.226,423.946 130.726,415.446 123,400.5C 117.539,397.588 111.706,396.755 105.5,398C 103.714,398.785 102.214,399.951 101,401.5C 99.629,405.073 98.129,408.573 96.5,412C 87.9045,411.541 80.2378,408.541 73.5,403C 58.4224,389.019 48.9224,371.853 45,351.5C 41.7651,330.09 38.0984,308.757 34,287.5C 29.8026,274.763 23.3026,263.43 14.5,253.5C 26.4377,241.963 33.9377,227.963 37,211.5C 40.4627,191.057 44.4627,170.723 49,150.5C 55.1295,127.372 69.6295,112.538 92.5,106C 94.2588,105.202 95.9255,105.369 97.5,106.5C 100.943,117.374 108.276,122.541 119.5,122C 128.309,116.414 129.809,109.248 124,100.5C 119.057,96.849 113.557,94.349 107.5,93C 108.263,66.8755 121.263,49.8755 146.5,42C 172.225,39.7524 197.892,37.0858 223.5,34C 238.016,29.7454 251.016,22.912 262.5,13.5 Z M 251.5,86.5 C 252.821,95.0088 252.821,103.675 251.5,112.5C 247.723,103.837 247.723,95.17 251.5,86.5 Z M 290.5,104.5 C 290.564,100.78 291.064,97.1135 292,93.5C 292.567,97.4168 292.067,101.083 290.5,104.5 Z M 107.5,103.5 C 112.181,103.498 115.515,105.498 117.5,109.5C 115.833,112.773 113.5,113.273 110.5,111C 108.105,108.761 107.105,106.261 107.5,103.5 Z M 150.5,103.5 C 151.906,103.973 152.573,104.973 152.5,106.5C 151.094,106.027 150.427,105.027 150.5,103.5 Z M 199.5,105.5 C 200.931,106.78 201.598,108.447 201.5,110.5C 200.069,109.22 199.402,107.553 199.5,105.5 Z M 341.5,105.5 C 338.225,111.731 334.225,117.397 329.5,122.5C 331.043,117.743 332.876,113.076 335,108.5C 336.843,106.829 339.009,105.829 341.5,105.5 Z M 315.5,106.5 C 315.128,110.297 313.794,113.63 311.5,116.5C 312.263,112.863 313.597,109.53 315.5,106.5 Z M 409.5,108.5 C 410.833,108.5 412.167,108.5 413.5,108.5C 413.622,114.01 411.288,115.51 406.5,113C 407.386,111.385 408.386,109.885 409.5,108.5 Z M 342.5,110.5 C 339.956,116.692 336.623,122.359 332.5,127.5C 335.08,121.332 338.414,115.665 342.5,110.5 Z M 332.5,127.5 C 332.573,129.027 331.906,130.027 330.5,130.5C 330.427,128.973 331.094,127.973 332.5,127.5 Z M 260.5,150.5 C 262.386,151.361 264.22,152.361 266,153.5C 266.977,157.268 268.477,160.768 270.5,164C 274.451,164.536 277.951,166.036 281,168.5C 284.196,174.089 286.196,180.089 287,186.5C 302.408,192.311 307.742,203.311 303,219.5C 305.854,221.598 308.521,223.931 311,226.5C 314.002,233.894 313.669,241.227 310,248.5C 308.167,252.167 306.333,255.833 304.5,259.5C 304.833,260.5 305.5,261.167 306.5,261.5C 321.558,254.036 327.058,258.702 323,275.5C 320.142,284.026 315.975,291.859 310.5,299C 307.989,301.105 305.656,300.938 303.5,298.5C 302.328,298.919 301.328,299.585 300.5,300.5C 295.598,311.794 288.598,321.627 279.5,330C 268.657,339.057 257.324,339.723 245.5,332C 233.59,323.232 225.256,311.732 220.5,297.5C 217.25,297.192 213.917,297.025 210.5,297C 199.421,286.602 195.754,274.102 199.5,259.5C 203.776,255.742 207.776,256.242 211.5,261C 212.793,261.49 214.127,261.657 215.5,261.5C 214.557,256.594 212.724,251.927 210,247.5C 207.803,235.61 211.136,225.61 220,217.5C 217.433,207.032 219.933,198.032 227.5,190.5C 231.03,187.805 234.696,185.305 238.5,183C 238.26,172.54 243.426,166.04 254,163.5C 255.33,158.632 257.496,154.299 260.5,150.5 Z M 124.5,192.5 C 118.309,190.738 112.642,187.904 107.5,184C 113.67,185.752 119.337,188.585 124.5,192.5 Z M 260.5,231.5 C 266.928,237.852 270.928,245.685 272.5,255C 269.219,267.649 262.052,270.483 251,263.5C 248.66,259.445 247.993,255.111 249,250.5C 251.867,243.492 255.701,237.158 260.5,231.5 Z M 99.5,251.5 C 102.479,252.654 105.479,253.82 108.5,255C 104.541,256.743 100.541,256.576 96.5,254.5C 97.7701,253.712 98.7701,252.712 99.5,251.5 Z M 89.5,271.5 C 97.8269,270.778 106.16,270.611 114.5,271C 107.026,273.421 99.3597,274.088 91.5,273C 90.5842,272.722 89.9175,272.222 89.5,271.5 Z M 408.5,278.5 C 409.274,277.853 410.274,277.52 411.5,277.5C 416.841,278.287 422.174,279.12 427.5,280C 430.267,280.669 430.767,281.836 429,283.5C 422.079,282.062 415.245,280.395 408.5,278.5 Z M 101.5,279.5 C 103.527,279.338 105.527,279.505 107.5,280C 103.551,281.184 99.5511,281.518 95.5,281C 97.7078,280.809 99.7078,280.309 101.5,279.5 Z M 422.5,314.5 C 415.47,310.988 408.137,308.155 400.5,306C 397.408,305.066 397.075,303.9 399.5,302.5C 407.341,304.28 414.841,306.947 422,310.5C 422.49,311.793 422.657,313.127 422.5,314.5 Z M 118.5,308.5 C 120.199,308.34 121.866,308.506 123.5,309C 117.51,310.993 111.51,312.993 105.5,315C 103.833,315.667 102.167,315.667 100.5,315C 106.653,313.117 112.653,310.95 118.5,308.5 Z M 397.5,310.5 C 399.553,310.402 401.22,311.069 402.5,312.5C 400.447,312.598 398.78,311.931 397.5,310.5 Z M 408.5,314.5 C 411.794,314.259 414.794,315.092 417.5,317C 414.214,317.07 411.214,316.236 408.5,314.5 Z M 222.5,323.5 C 246.773,354.557 271.939,355.223 298,325.5C 299.057,338.795 302.391,351.461 308,363.5C 315.922,372.553 325.755,378.72 337.5,382C 343.204,386.662 346.704,392.495 348,399.5C 319.194,416.328 288.028,424.661 254.5,424.5C 238.211,423.285 222.211,420.452 206.5,416C 194.846,410.84 183.513,405.173 172.5,399C 170.032,397.412 169.866,395.578 172,393.5C 175.131,389.367 178.631,385.534 182.5,382C 190.212,377.144 198.212,372.81 206.5,369C 212.25,363.671 216.084,357.171 218,349.5C 219.438,340.81 220.938,332.144 222.5,323.5 Z M 116.5,325.5 C 113.701,328.139 110.368,328.972 106.5,328C 109.824,327.057 113.157,326.224 116.5,325.5 Z M 393.5,345.5 C 396.455,345.981 398.789,347.481 400.5,350C 399.833,350.667 399.167,350.667 398.5,350C 396.76,348.483 395.094,346.983 393.5,345.5 Z M 111.5,407.5 C 114.955,408.128 116.122,410.128 115,413.5C 112.874,415.377 110.374,416.377 107.5,416.5C 106.981,412.547 108.314,409.547 111.5,407.5 Z M 403.5,411.5 C 406.167,411.5 408.833,411.5 411.5,411.5C 412.663,420.469 409.83,421.802 403,415.5C 402.805,414.181 402.972,412.847 403.5,411.5 Z M 157.5,443.5 C 159.39,443.297 160.89,443.963 162,445.5C 163.041,450.44 162.374,455.106 160,459.5C 156.553,454.591 155.719,449.258 157.5,443.5 Z M 358.5,443.5 C 360.68,445.031 361.68,447.198 361.5,450C 361.316,453.553 360.15,456.719 358,459.5C 354.522,454.013 354.689,448.68 358.5,443.5 Z M 218.5,466.5 C 223.684,466.749 226.018,469.583 225.5,475C 224.969,481.841 222.803,482.341 219,476.5C 216.422,473.126 216.255,469.793 218.5,466.5 Z M 295.5,466.5 C 296.833,466.5 298.167,466.5 299.5,466.5C 300.261,471.639 298.761,475.973 295,479.5C 292.984,475.121 293.151,470.788 295.5,466.5 Z"/></g>
<g><path style="opacity:0.785" fill="#00a1e9" d="M 323.5,106.5 C 320.947,111.957 318.28,117.457 315.5,123C 313.412,124.03 311.245,124.863 309,125.5C 306.773,124.637 304.607,123.637 302.5,122.5C 300.678,123.429 299.345,122.762 298.5,120.5C 304.245,107.265 308.578,93.5988 311.5,79.5C 307.378,90.6167 303.545,101.95 300,113.5C 299.259,116.339 297.593,118.339 295,119.5C 293.97,119.164 293.47,118.497 293.5,117.5C 291.703,118.73 289.703,119.396 287.5,119.5C 288.374,116.211 289.041,112.877 289.5,109.5C 288.461,111.901 287.127,114.235 285.5,116.5C 283.305,117.769 281.139,117.769 279,116.5C 278.506,109.114 279.006,101.78 280.5,94.5C 280.523,92.9334 280.023,91.6001 279,90.5C 277.59,98.8811 275.924,107.214 274,115.5C 271.441,118.123 269.108,117.79 267,114.5C 266.258,108.801 266.425,103.134 267.5,97.5C 267.051,93.3371 266.051,89.3371 264.5,85.5C 266.663,83.2802 269.163,82.9469 272,84.5C 272.333,89.1667 272.667,93.8333 273,98.5C 273.493,94.0317 274.493,89.6983 276,85.5C 279.44,83.0615 282.773,83.0615 286,85.5C 285.573,92.1571 285.24,98.8238 285,105.5C 285.892,99.8139 286.892,94.1473 288,88.5C 290.909,85.6061 294.409,84.7728 298.5,86C 299.718,87.4382 300.385,89.1049 300.5,91C 299.047,96.4285 298.047,101.929 297.5,107.5C 302.599,95.0495 307.433,82.3829 312,69.5C 315.693,66.477 318.527,67.1436 320.5,71.5C 317.845,79.7896 315.678,88.1229 314,96.5C 316.431,93.4817 319.431,92.8151 323,94.5C 324.755,98.4116 324.921,102.412 323.5,106.5 Z M 290.5,104.5 C 292.067,101.083 292.567,97.4168 292,93.5C 291.064,97.1135 290.564,100.78 290.5,104.5 Z M 315.5,106.5 C 315.128,110.297 313.794,113.63 311.5,116.5C 312.263,112.863 313.597,109.53 315.5,106.5 Z"/></g>
<g><path style="opacity:0.802" fill="#00a1e9" d="M 248.5,82.5 C 249.833,82.5 251.167,82.5 252.5,82.5C 252.351,83.552 252.517,84.552 253,85.5C 255.37,82.3989 258.204,81.8989 261.5,84C 262.191,85.0674 262.691,86.2341 263,87.5C 263.824,97.2123 263.491,106.879 262,116.5C 259.743,119.119 257.577,119.119 255.5,116.5C 258.931,108.049 259.431,99.3827 257,90.5C 256.996,98.9533 256.162,107.287 254.5,115.5C 249.644,118.892 246.144,117.892 244,112.5C 242.89,114.037 241.39,114.703 239.5,114.5C 238.557,106.519 238.39,98.5188 239,90.5C 240.593,85.8085 243.76,83.1418 248.5,82.5 Z M 251.5,86.5 C 247.723,95.17 247.723,103.837 251.5,112.5C 252.821,103.675 252.821,95.0088 251.5,86.5 Z"/></g>
<g><path style="opacity:0.785" fill="#00a1e9" d="M 216.5,86.5 C 223.579,86.7559 226.412,90.4226 225,97.5C 224.311,98.3567 223.478,99.0233 222.5,99.5C 220.904,97.1362 219.738,94.4695 219,91.5C 218.13,92.1079 217.63,92.9412 217.5,94C 219.481,100.923 221.147,107.923 222.5,115C 222.369,117.253 221.869,119.419 221,121.5C 216.702,122.921 214.035,121.254 213,116.5C 211.055,108.498 208.222,100.831 204.5,93.5C 209.037,92.1452 212.204,93.8119 214,98.5C 213.984,94.205 214.817,90.205 216.5,86.5 Z"/></g>
<g><path style="opacity:0.752" fill="#00a1e9" d="M 206.5,125.5 C 206.044,128.286 204.377,129.619 201.5,129.5C 199.045,129.372 197.045,128.372 195.5,126.5C 195.421,127.93 195.754,129.264 196.5,130.5C 195.5,131.833 194.5,131.833 193.5,130.5C 188.544,122.423 184.544,113.923 181.5,105C 181.559,103.564 181.892,102.231 182.5,101C 187.562,99.7086 191.062,101.542 193,106.5C 195.488,112.81 198.488,118.81 202,124.5C 198.941,116.016 196.108,107.349 193.5,98.5C 193.57,97.2284 193.903,96.0617 194.5,95C 199.009,92.3926 202.175,93.5593 204,98.5C 206.333,104.833 208.667,111.167 211,117.5C 211.817,120.964 211.483,124.298 210,127.5C 209.586,127.957 209.086,128.291 208.5,128.5C 207.824,127.398 207.158,126.398 206.5,125.5 Z M 199.5,105.5 C 200.931,106.78 201.598,108.447 201.5,110.5C 200.069,109.22 199.402,107.553 199.5,105.5 Z"/></g>
<g><path style="opacity:0.749" fill="#00a1e9" d="M 168.5,116.5 C 167.427,113.279 167.427,110.112 168.5,107C 173.41,104.387 177.244,105.553 180,110.5C 183.603,116.707 186.936,123.04 190,129.5C 190.667,132.167 190.667,134.833 190,137.5C 188.989,138.337 187.822,138.67 186.5,138.5C 184.293,128.085 179.459,119.085 172,111.5C 172.306,113.823 172.972,116.156 174,118.5C 176.917,122.666 179.584,126.999 182,131.5C 183.26,136.184 182.26,140.184 179,143.5C 172.94,135.103 167.273,126.437 162,117.5C 158.968,113.641 155.802,109.974 152.5,106.5C 160.114,118.465 167.781,130.465 175.5,142.5C 175.192,143.308 174.692,143.975 174,144.5C 172.723,142.253 171.223,140.253 169.5,138.5C 169.672,137.508 169.338,136.842 168.5,136.5C 168.5,135.833 168.167,135.5 167.5,135.5C 167.5,134.833 167.167,134.5 166.5,134.5C 166.672,133.508 166.338,132.842 165.5,132.5C 165.5,131.833 165.167,131.5 164.5,131.5C 164.5,130.833 164.167,130.5 163.5,130.5C 158.855,123.669 154.355,116.669 150,109.5C 147.871,105.579 146.037,101.579 144.5,97.5C 146.428,94.7315 149.095,93.8982 152.5,95C 158.463,101.788 163.797,108.955 168.5,116.5 Z M 150.5,103.5 C 151.906,103.973 152.573,104.973 152.5,106.5C 151.094,106.027 150.427,105.027 150.5,103.5 Z"/></g>
<g><path style="opacity:0.766" fill="#00a1e9" d="M 341.5,105.5 C 346.1,103.733 348.766,105.399 349.5,110.5C 346.406,120.1 341.406,128.6 334.5,136C 332.702,137.505 330.868,137.672 329,136.5C 328.678,134.311 329.178,132.311 330.5,130.5C 324.311,135.487 320.645,133.987 319.5,126C 321.982,120.871 324.316,115.704 326.5,110.5C 325.603,111.598 324.77,111.598 324,110.5C 323.51,109.207 323.343,107.873 323.5,106.5C 327.625,100.959 332.958,99.1256 339.5,101C 341.037,102.11 341.703,103.61 341.5,105.5 Z M 341.5,105.5 C 338.225,111.731 334.225,117.397 329.5,122.5C 331.043,117.743 332.876,113.076 335,108.5C 336.843,106.829 339.009,105.829 341.5,105.5 Z M 342.5,110.5 C 339.956,116.692 336.623,122.359 332.5,127.5C 335.08,121.332 338.414,115.665 342.5,110.5 Z M 332.5,127.5 C 332.573,129.027 331.906,130.027 330.5,130.5C 330.427,128.973 331.094,127.973 332.5,127.5 Z"/></g>
<g><path style="opacity:0.774" fill="#00a1e9" d="M 367.5,152.5 C 364.494,154.67 361.161,156.336 357.5,157.5C 355.971,157.471 354.804,156.804 354,155.5C 353.21,152.366 353.543,149.366 355,146.5C 358.083,141.412 361.917,136.912 366.5,133C 364.881,132.764 363.881,131.931 363.5,130.5C 359.78,136.058 355.447,141.225 350.5,146C 347.793,148.581 345.126,148.748 342.5,146.5C 350.12,138.717 356.787,130.217 362.5,121C 361.004,120.493 359.837,120.993 359,122.5C 355.412,128.01 351.578,133.343 347.5,138.5C 344.656,140.538 341.656,140.871 338.5,139.5C 337.417,138.635 337.251,137.635 338,136.5C 341.667,131.5 345.333,126.5 349,121.5C 350.399,118.637 351.399,115.637 352,112.5C 353.312,110.342 354.978,110.009 357,111.5C 357.422,114.236 357.422,116.902 357,119.5C 362.239,115.027 365.739,116.193 367.5,123C 366.67,124.465 366.504,125.965 367,127.5C 372.412,125.433 377.079,126.433 381,130.5C 381.483,131.448 381.649,132.448 381.5,133.5C 377.281,132.979 373.614,134.146 370.5,137C 365.263,141.385 361.43,146.552 359,152.5C 365.587,145.909 372.753,140.076 380.5,135C 385.992,134.514 387.825,137.014 386,142.5C 380.5,148 375,153.5 369.5,159C 371.007,159.837 371.507,161.004 371,162.5C 366.199,166.299 361.699,170.466 357.5,175C 348.49,179.372 340.656,177.872 334,170.5C 333.517,169.552 333.351,168.552 333.5,167.5C 337.588,169.437 341.921,170.27 346.5,170C 354.274,165.056 361.274,159.222 367.5,152.5 Z"/></g>
<g><path style="opacity:0.743" fill="#00a1e9" d="M 163.5,130.5 C 164.167,130.5 164.5,130.833 164.5,131.5C 165.167,131.5 165.5,131.833 165.5,132.5C 165.328,133.492 165.662,134.158 166.5,134.5C 167.167,134.5 167.5,134.833 167.5,135.5C 168.167,135.5 168.5,135.833 168.5,136.5C 168.328,137.492 168.662,138.158 169.5,138.5C 170.447,140.734 171.114,143.068 171.5,145.5C 171.167,146.5 170.833,147.5 170.5,148.5C 168.814,147.143 167.148,145.81 165.5,144.5C 165.961,146.55 166.628,148.55 167.5,150.5C 166.802,153.198 165.136,154.864 162.5,155.5C 159.473,154.639 156.806,153.139 154.5,151C 151.734,147.478 148.734,144.145 145.5,141C 144.906,140.536 144.239,140.369 143.5,140.5C 147.4,145.908 151.9,150.908 157,155.5C 157.749,156.635 157.583,157.635 156.5,158.5C 150.483,152.649 144.317,146.983 138,141.5C 135.141,136.438 136.474,133.104 142,131.5C 143.225,131.862 144.391,132.362 145.5,133C 151.015,138.682 156.681,144.182 162.5,149.5C 159.447,143.555 155.28,137.888 150,132.5C 143.999,124.594 145.833,121.094 155.5,122C 158.067,125.003 160.734,127.836 163.5,130.5 Z"/></g>
<g><path style="opacity:0.743" fill="#00a1e9" d="M 111.5,126.5 C 115.131,126.16 118.464,126.994 121.5,129C 132.299,138.13 142.799,147.63 153,157.5C 154.632,160.423 154.799,163.423 153.5,166.5C 141.201,155.039 128.701,143.705 116,132.5C 115.333,133.167 115.333,133.833 116,134.5C 126.833,144.667 137.667,154.833 148.5,165C 147.725,166.23 146.725,166.563 145.5,166C 134.5,156.333 123.5,146.667 112.5,137C 109.206,133.676 108.873,130.176 111.5,126.5 Z"/></g>
<g><path style="opacity:0.878" fill="#00a1e9" d="M 256.5,142.5 C 267.436,140.216 273.936,144.549 276,155.5C 286.611,160.027 292.944,168.027 295,179.5C 308.074,187.54 313.574,199.207 311.5,214.5C 316.845,217.68 320.012,222.347 321,228.5C 321.546,235.184 321.38,241.851 320.5,248.5C 325.853,248.681 329.353,251.348 331,256.5C 333.001,272.163 330.001,286.829 322,300.5C 318.019,305.227 313.185,308.561 307.5,310.5C 306.114,326.973 308.947,342.639 316,357.5C 324.34,366.255 334.506,371.755 346.5,374C 359.739,376.211 373.072,377.377 386.5,377.5C 385.378,382.119 382.378,384.952 377.5,386C 368.734,386.419 360.067,386.086 351.5,385C 354.833,390 358.167,395 361.5,400C 344.007,415.514 323.673,425.514 300.5,430C 254.713,439.146 211.38,432.48 170.5,410C 166.049,407.217 161.883,404.05 158,400.5C 157.743,397.983 158.41,395.65 160,393.5C 162.833,390 165.667,386.5 168.5,383C 159.495,382.867 150.495,382.867 141.5,383C 137.363,382.349 133.863,380.515 131,377.5C 130.51,376.207 130.343,374.873 130.5,373.5C 149.147,374.965 167.48,373.132 185.5,368C 199.296,363.206 207.796,353.706 211,339.5C 213.613,328.593 214.447,317.593 213.5,306.5C 208.707,305.771 204.374,303.937 200.5,301C 189.29,286.568 186.457,270.735 192,253.5C 195.52,250.642 199.02,247.809 202.5,245C 199.197,232.704 202.03,222.204 211,213.5C 208.812,197.824 214.645,186.49 228.5,179.5C 229.73,174.566 231.563,169.899 234,165.5C 237.582,161.957 241.749,159.29 246.5,157.5C 247.611,150.925 250.944,145.925 256.5,142.5 Z M 260.5,150.5 C 257.496,154.299 255.33,158.632 254,163.5C 243.426,166.04 238.26,172.54 238.5,183C 234.696,185.305 231.03,187.805 227.5,190.5C 219.933,198.032 217.433,207.032 220,217.5C 211.136,225.61 207.803,235.61 210,247.5C 212.724,251.927 214.557,256.594 215.5,261.5C 214.127,261.657 212.793,261.49 211.5,261C 207.776,256.242 203.776,255.742 199.5,259.5C 195.754,274.102 199.421,286.602 210.5,297C 213.917,297.025 217.25,297.192 220.5,297.5C 225.256,311.732 233.59,323.232 245.5,332C 257.324,339.723 268.657,339.057 279.5,330C 288.598,321.627 295.598,311.794 300.5,300.5C 301.328,299.585 302.328,298.919 303.5,298.5C 305.656,300.938 307.989,301.105 310.5,299C 315.975,291.859 320.142,284.026 323,275.5C 327.058,258.702 321.558,254.036 306.5,261.5C 305.5,261.167 304.833,260.5 304.5,259.5C 306.333,255.833 308.167,252.167 310,248.5C 313.669,241.227 314.002,233.894 311,226.5C 308.521,223.931 305.854,221.598 303,219.5C 307.742,203.311 302.408,192.311 287,186.5C 286.196,180.089 284.196,174.089 281,168.5C 277.951,166.036 274.451,164.536 270.5,164C 268.477,160.768 266.977,157.268 266,153.5C 264.22,152.361 262.386,151.361 260.5,150.5 Z M 260.5,231.5 C 255.701,237.158 251.867,243.492 249,250.5C 247.993,255.111 248.66,259.445 251,263.5C 262.052,270.483 269.219,267.649 272.5,255C 270.928,245.685 266.928,237.852 260.5,231.5 Z M 222.5,323.5 C 220.938,332.144 219.438,340.81 218,349.5C 216.084,357.171 212.25,363.671 206.5,369C 198.212,372.81 190.212,377.144 182.5,382C 178.631,385.534 175.131,389.367 172,393.5C 169.866,395.578 170.032,397.412 172.5,399C 183.513,405.173 194.846,410.84 206.5,416C 222.211,420.452 238.211,423.285 254.5,424.5C 288.028,424.661 319.194,416.328 348,399.5C 346.704,392.495 343.204,386.662 337.5,382C 325.755,378.72 315.922,372.553 308,363.5C 302.391,351.461 299.057,338.795 298,325.5C 271.939,355.223 246.773,354.557 222.5,323.5 Z"/></g>
<g><path style="opacity:0.796" fill="#00a1e9" d="M 377.5,174.5 C 371,175.501 368.5,172.835 370,166.5C 372.5,162.667 375.667,159.5 379.5,157C 377.842,156.275 377.342,155.108 378,153.5C 381.698,149.069 386.198,145.736 391.5,143.5C 394.167,144.167 395.833,145.833 396.5,148.5C 395.533,150.63 394.366,152.63 393,154.5C 386.875,158.956 381.042,163.789 375.5,169C 376.908,169.315 378.241,168.982 379.5,168C 385.414,162.547 392.081,158.381 399.5,155.5C 405.044,156.249 406.71,159.249 404.5,164.5C 396.027,171.823 386.527,177.489 376,181.5C 374.699,180.902 373.865,179.902 373.5,178.5C 374.867,177.16 376.2,175.827 377.5,174.5 Z"/></g>
<g><path style="opacity:0.659" fill="#00a1e9" d="M 99.5,156.5 C 105.337,155.518 108.17,157.851 108,163.5C 107.586,163.957 107.086,164.291 106.5,164.5C 104.851,163.352 103.351,162.019 102,160.5C 101.25,161.126 100.416,161.626 99.5,162C 100.833,164.667 102.833,166.667 105.5,168C 101.962,171.03 99.1286,170.197 97,165.5C 96.1307,162.007 96.964,159.007 99.5,156.5 Z"/></g>
<g><path style="opacity:0.729" fill="#00a1e9" d="M 112.5,163.5 C 123.207,166.106 132.374,171.44 140,179.5C 140.667,181.833 140.667,184.167 140,186.5C 132.407,178.95 123.573,173.284 113.5,169.5C 112.406,170.868 112.74,172.035 114.5,173C 122.564,177.024 129.897,182.024 136.5,188C 136,188.5 135.5,189 135,189.5C 127.411,184.621 119.578,180.121 111.5,176C 107.244,171.241 107.577,167.075 112.5,163.5 Z"/></g>
<g><path style="opacity:0.776" fill="#00a1e9" d="M 405.5,175.5 C 415.808,171.977 419.308,175.31 416,185.5C 408.69,190.573 400.857,194.739 392.5,198C 390.069,198.252 387.735,197.752 385.5,196.5C 384.289,195.726 384.289,194.893 385.5,194C 393.739,190.881 401.739,187.214 409.5,183C 411.616,181.829 412.282,180.329 411.5,178.5C 402.779,182.794 393.945,186.794 385,190.5C 380.974,189.449 379.974,187.115 382,183.5C 390.411,177.045 398.911,170.712 407.5,164.5C 410.193,166.073 411.026,168.407 410,171.5C 408.333,172.733 406.833,174.067 405.5,175.5 Z"/></g>
<g><path style="opacity:0.763" fill="#00a1e9" d="M 124.5,192.5 C 127.847,196.195 129.847,200.528 130.5,205.5C 115.406,198.955 100.072,192.955 84.5,187.5C 95.8413,193.166 107.508,198.332 119.5,203C 121.667,204.5 123.833,206 126,207.5C 126.483,208.448 126.649,209.448 126.5,210.5C 117.295,206.317 107.962,202.317 98.5,198.5C 91.1019,194.966 83.7685,191.133 76.5,187C 75.233,185.204 75.233,183.371 76.5,181.5C 79.4459,180.345 82.4459,180.179 85.5,181C 92.0322,182.677 98.3656,184.844 104.5,187.5C 102.296,182.613 103.63,179.28 108.5,177.5C 115.556,179.862 122.223,183.028 128.5,187C 132.855,189.861 134.189,193.694 132.5,198.5C 130.668,195.328 128.001,193.328 124.5,192.5 Z M 124.5,192.5 C 119.337,188.585 113.67,185.752 107.5,184C 112.642,187.904 118.309,190.738 124.5,192.5 Z"/></g>
<g><path style="opacity:0.759" fill="#00a1e9" d="M 98.5,198.5 C 99.0114,200.195 99.6781,201.861 100.5,203.5C 107.286,205.696 113.953,208.196 120.5,211C 121.667,212.167 122.833,213.333 124,214.5C 124.781,215.944 124.614,217.277 123.5,218.5C 109.779,212.153 95.4458,207.82 80.5,205.5C 93.1508,210.663 106.151,215.163 119.5,219C 120.784,220.297 120.617,221.464 119,222.5C 110.985,218.27 102.485,216.103 93.5,216C 92.9747,216.692 92.3081,217.192 91.5,217.5C 90.316,215.954 89.316,214.287 88.5,212.5C 82.3555,210.064 76.1888,207.73 70,205.5C 69.861,198.313 73.361,195.479 80.5,197C 84.6096,198.222 88.6096,199.722 92.5,201.5C 94.2433,199.962 96.2433,198.962 98.5,198.5 Z"/></g>
<g><path style="opacity:0.791" fill="#00a1e9" d="M 423.5,205.5 C 426.937,205.77 428.937,207.603 429.5,211C 427.166,215.348 423.499,218.015 418.5,219C 422.584,219.231 426.584,219.898 430.5,221C 434.346,228.641 432.013,233.308 423.5,235C 417.691,235.998 411.857,236.831 406,237.5C 403.679,237.091 401.513,236.257 399.5,235C 398.663,233.989 398.33,232.822 398.5,231.5C 408.546,231.591 418.213,229.924 427.5,226.5C 428.59,225.391 428.59,224.391 427.5,223.5C 426.061,222.937 424.561,222.603 423,222.5C 416.362,223.993 409.695,225.326 403,226.5C 396.008,226.025 394.841,223.192 399.5,218C 407.118,215.179 414.784,212.513 422.5,210C 423.38,208.644 423.714,207.144 423.5,205.5 Z"/></g>
<g><path style="opacity:0.865" fill="#00a1e9" d="M 259.5,208.5 C 260.675,208.281 261.675,208.614 262.5,209.5C 266.612,220.391 271.779,230.724 278,240.5C 281.547,249.329 281.214,257.996 277,266.5C 265.667,278.5 254.333,278.5 243,266.5C 239.525,257.711 239.858,249.045 244,240.5C 250.513,230.473 255.68,219.807 259.5,208.5 Z M 260.5,231.5 C 255.701,237.158 251.867,243.492 249,250.5C 247.993,255.111 248.66,259.445 251,263.5C 262.052,270.483 269.219,267.649 272.5,255C 270.928,245.685 266.928,237.852 260.5,231.5 Z"/></g>
<g><path style="opacity:0.792" fill="#00a1e9" d="M 89.5,271.5 C 85.7731,269.955 84.7731,267.289 86.5,263.5C 89.8652,261.323 93.5318,259.823 97.5,259C 87.044,258.725 82.7107,253.559 84.5,243.5C 85.2421,242.713 86.0754,242.047 87,241.5C 87.8053,245.307 90.1386,247.307 94,247.5C 96.5624,246.612 98.8958,245.279 101,243.5C 103.807,246.292 107.14,248.292 111,249.5C 117.058,246.514 116.891,243.681 110.5,241C 103.119,239.663 96.1189,237.33 89.5,234C 87.0052,230.015 86.8385,225.848 89,221.5C 92.5119,219.352 96.1785,219.019 100,220.5C 101.505,222.298 101.672,224.132 100.5,226C 97.2932,226.415 94.2932,226.082 91.5,225C 92.1667,226.333 93.1667,227.333 94.5,228C 101.155,227.78 107.822,227.78 114.5,228C 118.45,230.436 120.45,233.936 120.5,238.5C 118.01,236.88 115.344,235.38 112.5,234C 108.129,233.172 103.795,233.339 99.5,234.5C 104.136,235.773 108.803,236.94 113.5,238C 121.006,241.379 122.34,246.379 117.5,253C 115.913,253.862 114.246,254.529 112.5,255C 120.957,255.118 129.29,256.118 137.5,258C 143.855,261.591 146.355,266.757 145,273.5C 141.44,268.471 136.607,265.638 130.5,265C 117.809,264.89 105.142,265.557 92.5,267C 100.833,267.333 109.167,267.667 117.5,268C 120.379,269.666 121.212,272.166 120,275.5C 119.097,276.701 117.931,277.535 116.5,278C 118.134,278.494 119.801,278.66 121.5,278.5C 121.5,279.5 121.5,280.5 121.5,281.5C 120.448,281.351 119.448,281.517 118.5,282C 121.447,282.112 122.78,283.612 122.5,286.5C 112.62,287.535 102.954,289.535 93.5,292.5C 93.5,293.5 93.5,294.5 93.5,295.5C 101.732,294.02 109.899,292.354 118,290.5C 123.092,290.895 124.925,293.395 123.5,298C 112.94,300.187 102.94,303.52 93.5,308C 91.5199,303.634 92.8532,300.634 97.5,299C 89.0994,299.608 86.5994,296.108 90,288.5C 91.6477,287.283 93.481,286.45 95.5,286C 88.7494,284.004 85.9161,279.504 87,272.5C 87.6708,271.748 88.5041,271.414 89.5,271.5 Z M 99.5,251.5 C 98.7701,252.712 97.7701,253.712 96.5,254.5C 100.541,256.576 104.541,256.743 108.5,255C 105.479,253.82 102.479,252.654 99.5,251.5 Z M 89.5,271.5 C 89.9175,272.222 90.5842,272.722 91.5,273C 99.3597,274.088 107.026,273.421 114.5,271C 106.16,270.611 97.8269,270.778 89.5,271.5 Z M 101.5,279.5 C 99.7078,280.309 97.7078,280.809 95.5,281C 99.5511,281.518 103.551,281.184 107.5,280C 105.527,279.505 103.527,279.338 101.5,279.5 Z"/></g>
<g><path style="opacity:0.785" fill="#00a1e9" d="M 417.5,237.5 C 426.361,235.515 432.861,238.515 437,246.5C 437.43,249.192 437.263,251.859 436.5,254.5C 433.175,254.506 430.841,253.006 429.5,250C 421.089,249.095 412.755,249.428 404.5,251C 405.328,251.915 406.328,252.581 407.5,253C 414.833,253.333 422.167,253.667 429.5,254C 436.618,256.925 437.285,260.925 431.5,266C 423.182,265.927 414.848,265.594 406.5,265C 401.893,264.561 399.56,262.061 399.5,257.5C 409.411,259.377 419.411,259.877 429.5,259C 423.698,257.235 417.864,257.068 412,258.5C 407.672,258.28 404.006,256.613 401,253.5C 400.333,251.167 400.333,248.833 401,246.5C 403.351,245.286 405.851,244.452 408.5,244C 407.552,243.517 406.552,243.351 405.5,243.5C 405.5,242.167 405.5,240.833 405.5,239.5C 409.684,239.149 413.684,238.482 417.5,237.5 Z"/></g>
<g><path style="opacity:0.79" fill="#00a1e9" d="M 423.5,315.5 C 425.166,322.336 422.499,325.169 415.5,324C 408.172,321.779 401.172,318.779 394.5,315C 391.24,312.895 390.906,310.729 393.5,308.5C 391.792,304.541 392.458,301.041 395.5,298C 400.861,297.391 406.195,297.558 411.5,298.5C 404.493,295.405 397.16,292.905 389.5,291C 375.881,285.265 370.548,275.098 373.5,260.5C 374.5,260.5 375.5,260.5 376.5,260.5C 376.196,270.05 380.529,276.55 389.5,280C 401.177,284.232 413.177,286.565 425.5,287C 418.893,285.412 412.226,284.079 405.5,283C 400.962,281.287 399.462,278.12 401,273.5C 401.75,272.874 402.584,272.374 403.5,272C 408.5,271.667 413.5,271.333 418.5,271C 414.789,270.825 411.122,270.325 407.5,269.5C 407.709,268.914 408.043,268.414 408.5,268C 417.457,266.395 425.79,267.895 433.5,272.5C 436.449,277.164 436.116,281.497 432.5,285.5C 434.609,291.615 432.443,294.948 426,295.5C 408.86,290.899 408.36,292.066 424.5,299C 428.962,303.822 429.629,309.155 426.5,315C 425.552,315.483 424.552,315.649 423.5,315.5 Z M 408.5,278.5 C 415.245,280.395 422.079,282.062 429,283.5C 430.767,281.836 430.267,280.669 427.5,280C 422.174,279.12 416.841,278.287 411.5,277.5C 410.274,277.52 409.274,277.853 408.5,278.5 Z M 422.5,314.5 C 422.657,313.127 422.49,311.793 422,310.5C 414.841,306.947 407.341,304.28 399.5,302.5C 397.075,303.9 397.408,305.066 400.5,306C 408.137,308.155 415.47,310.988 422.5,314.5 Z M 397.5,310.5 C 399.553,310.402 401.22,311.069 402.5,312.5C 400.447,312.598 398.78,311.931 397.5,310.5 Z M 408.5,314.5 C 411.214,316.236 414.214,317.07 417.5,317C 414.794,315.092 411.794,314.259 408.5,314.5 Z"/></g>
<g><path style="opacity:0.801" fill="#00a1e9" d="M 128.5,319.5 C 135.168,319.309 135.834,320.809 130.5,324C 133.289,324.241 135.956,324.908 138.5,326C 139.337,327.011 139.67,328.178 139.5,329.5C 136.101,330.016 132.768,330.85 129.5,332C 123.5,335.333 117.5,338.667 111.5,342C 117.219,340.813 122.553,338.48 127.5,335C 130.868,333.449 134.368,332.283 138,331.5C 143.126,332.542 144.292,335.042 141.5,339C 135.5,343 129.5,347 123.5,351C 122.748,351.671 122.414,352.504 122.5,353.5C 128.688,349.49 135.021,345.657 141.5,342C 145.374,341.028 148.707,341.862 151.5,344.5C 143.672,351.491 135.672,358.325 127.5,365C 122.101,367.446 120.101,365.613 121.5,359.5C 117.218,359.36 114.885,357.027 114.5,352.5C 115.071,349.687 116.404,347.354 118.5,345.5C 115.201,346.376 111.868,346.543 108.5,346C 107.39,343.263 107.223,340.429 108,337.5C 112.136,333.856 116.636,330.856 121.5,328.5C 117.832,329.556 114.165,330.722 110.5,332C 103.883,332.246 99.5496,329.079 97.5,322.5C 97.8333,321.5 98.5,320.833 99.5,320.5C 102.438,321.575 105.438,321.741 108.5,321C 114.067,319.217 119.401,316.883 124.5,314C 116.305,315.391 108.138,317.225 100,319.5C 98.3419,319.325 97.0086,318.658 96,317.5C 95.3333,315.167 95.3333,312.833 96,310.5C 102.438,306.841 109.272,304.008 116.5,302C 120.591,300.773 124.091,301.606 127,304.5C 127.684,305.784 127.517,306.951 126.5,308C 130.959,311.133 131.626,314.967 128.5,319.5 Z M 118.5,308.5 C 112.653,310.95 106.653,313.117 100.5,315C 102.167,315.667 103.833,315.667 105.5,315C 111.51,312.993 117.51,310.993 123.5,309C 121.866,308.506 120.199,308.34 118.5,308.5 Z M 116.5,325.5 C 113.157,326.224 109.824,327.057 106.5,328C 110.368,328.972 113.701,328.139 116.5,325.5 Z"/></g>
<g><path style="opacity:0.785" fill="#00a1e9" d="M 388.5,317.5 C 399.606,320.424 410.606,323.757 421.5,327.5C 421.822,329.722 421.155,331.556 419.5,333C 417.1,333.186 414.766,333.686 412.5,334.5C 416.909,342.685 414.576,346.185 405.5,345C 403.833,344 402.167,343 400.5,342C 397.195,337.543 398.195,335.543 403.5,336C 404.24,339.91 406.573,341.744 410.5,341.5C 410.67,340.178 410.337,339.011 409.5,338C 401.081,334.044 393.247,329.211 386,323.5C 385.034,320.66 385.867,318.66 388.5,317.5 Z"/></g>
<g><path style="opacity:0.747" fill="#00a1e9" d="M 389.5,363.5 C 384.528,358.699 379.362,354.032 374,349.5C 371.841,345.808 372.007,342.308 374.5,339C 378.611,338.535 382.611,339.035 386.5,340.5C 384.563,339.069 382.73,337.402 381,335.5C 380.437,334.275 380.77,333.275 382,332.5C 389.719,336.863 396.719,342.196 403,348.5C 406.721,355.171 405.554,360.837 399.5,365.5C 396.43,355.262 389.763,348.429 379.5,345C 378.365,344.251 377.365,344.417 376.5,345.5C 378.267,348.77 380.6,351.603 383.5,354C 389.309,357.309 393.976,361.809 397.5,367.5C 394.814,372.561 391.148,373.394 386.5,370C 381.667,365.833 376.833,361.667 372,357.5C 370.247,354.995 368.747,352.329 367.5,349.5C 368.365,348.417 369.365,348.251 370.5,349C 376.533,354.336 382.867,359.17 389.5,363.5 Z M 393.5,345.5 C 395.094,346.983 396.76,348.483 398.5,350C 399.167,350.667 399.833,350.667 400.5,350C 398.789,347.481 396.455,345.981 393.5,345.5 Z"/></g>
</svg>
